<?xml version="1.0" encoding="UTF-8" standalone="no"?>
<svg
   xmlns:dc="http://purl.org/dc/elements/1.1/"
   xmlns:cc="http://creativecommons.org/ns#"
   xmlns:rdf="http://www.w3.org/1999/02/22-rdf-syntax-ns#"
   xmlns:svg="http://www.w3.org/2000/svg"
   xmlns="http://www.w3.org/2000/svg"
   xmlns:sodipodi="http://sodipodi.sourceforge.net/DTD/sodipodi-0.dtd"
   xmlns:inkscape="http://www.inkscape.org/namespaces/inkscape"
   inkscape:version="1.0 (4035a4f, 2020-05-01)"
   sodipodi:docname="answer-logo.svg"
   version="1.1"
   id="svg2"
   xml:space="preserve"
   width="954.03381"
   height="815.3656"
   viewBox="0 0 954.03381 815.3656"><sodipodi:namedview
     inkscape:current-layer="svg2"
     inkscape:window-maximized="0"
     inkscape:window-y="23"
     inkscape:window-x="37"
     inkscape:cy="642.30991"
     inkscape:cx="-83.040737"
     inkscape:zoom="0.309375"
     showgrid="false"
     id="namedview896"
     inkscape:window-height="1035"
     inkscape:window-width="1883"
     inkscape:pageshadow="2"
     inkscape:pageopacity="0"
     guidetolerance="10"
     gridtolerance="10"
     objecttolerance="10"
     borderopacity="1"
     bordercolor="#666666"
     pagecolor="#ffffff" /><metadata
     id="metadata8"><rdf:RDF><cc:Work
         rdf:about=""><dc:format>image/svg+xml</dc:format><dc:type
           rdf:resource="http://purl.org/dc/dcmitype/StillImage" /></cc:Work></rdf:RDF></metadata><defs
     id="defs6"><clipPath
       clipPathUnits="userSpaceOnUse"
       id="clipPath18"><path
         d="M 0,1080 H 1080 V 0 H 0 Z"
         id="path16" /></clipPath></defs><g
     id="g10"
     transform="matrix(1.3333333,0,0,-1.3333333,-274.03186,1181.6696)"><g
       id="g12"><g
         id="g14"
         clip-path="url(#clipPath18)"><g
           id="g20"
           transform="translate(740.252,339.5225)"><path
             d="m 0,0 c 9.588,17.489 19.433,34.837 29.53,52.036 10.089,17.185 20.428,34.222 31.008,51.109 6.056,9.664 12.191,19.279 18.401,28.844 3.184,5.001 4.908,10.402 5.17,16.199 1.297,5.792 1.038,11.583 -0.778,17.375 -1.348,5.67 -3.947,10.61 -7.799,14.818 -3.072,4.743 -7.146,8.484 -12.224,11.222 -3.469,1.464 -6.939,2.928 -10.409,4.392 -7.721,2.075 -15.443,2.075 -23.166,0 -3.468,-1.464 -6.938,-2.928 -10.408,-4.392 C 12.778,187.729 7.567,182.519 3.694,175.972 -7.29,159.054 -18.036,141.981 -28.529,124.754 -38.862,107.789 -48.953,90.677 -58.79,73.419 -64.356,63.653 -69.841,53.84 -75.245,43.982 c -3.184,-5.001 -4.907,-10.401 -5.17,-16.199 -1.298,-5.792 -1.038,-11.583 0.777,-17.375 1.349,-5.67 3.949,-10.608 7.799,-14.817 3.072,-4.743 7.148,-8.484 12.226,-11.222 3.468,-1.464 6.938,-2.929 10.408,-4.392 7.722,-2.076 15.443,-2.076 23.165,0 3.47,1.463 6.939,2.928 10.409,4.392 C -9.084,-11.758 -3.874,-6.547 0,0"
             style="fill:#225277;fill-opacity:1;fill-rule:nonzero;stroke:none"
             id="path22" /></g><g
           id="g24"
           transform="translate(612.8164,705.5156)"><path
             d="m 0,0 c 4.155,2.334 8.335,3.922 12.537,4.763 3.548,0.793 7.377,1.003 11.486,0.63 L 13.447,28.646 Z m 34.108,-14.323 c -0.934,0.303 -1.634,0.922 -2.1,1.856 l -4.833,10.786 c -4.576,1.12 -9.082,1.191 -13.517,0.21 -3.689,-0.701 -7.191,-2.078 -10.506,-4.133 -3.596,-2.241 -6.864,-4.786 -9.805,-7.633 -1.495,-1.494 -3.012,-1.775 -4.553,-0.841 -1.355,0.887 -1.565,2.404 -0.63,4.553 l 22.132,48.046 c 0.7,1.353 1.774,2.031 3.222,2.031 1.541,0 2.591,-0.678 3.151,-2.031 L 38.451,-9.525 c 0.373,-0.935 0.397,-1.845 0.07,-2.732 -0.327,-0.888 -0.934,-1.541 -1.821,-1.961 -0.795,-0.373 -1.658,-0.408 -2.592,-0.105"
             style="fill:#70c7d7;fill-opacity:1;fill-rule:nonzero;stroke:none"
             id="path26" /></g><g
           id="g28"
           transform="translate(697.6318,692.208)"><path
             d="M 0,0 -33.828,40.692 V 2.312 c 0,-0.981 -0.34,-1.811 -1.016,-2.487 -0.677,-0.678 -1.506,-1.015 -2.486,-1.015 -0.981,0 -1.811,0.337 -2.486,1.015 -0.678,0.676 -1.016,1.506 -1.016,2.487 v 48.045 c 0,1.634 0.77,2.732 2.311,3.292 1.541,0.56 2.825,0.21 3.852,-1.05 L -0.771,11.977 v 38.451 c 0,0.98 0.338,1.808 1.016,2.486 0.676,0.676 1.506,1.016 2.486,1.016 0.934,0 1.751,-0.34 2.452,-1.016 0.7,-0.678 1.05,-1.506 1.05,-2.486 V 2.241 C 6.233,0.561 5.509,-0.49 4.062,-0.91 2.287,-1.424 0.934,-1.12 0,0"
             style="fill:#70c7d7;fill-opacity:1;fill-rule:nonzero;stroke:none"
             id="path30" /></g><g
           id="g32"
           transform="translate(724.5254,690.3174)"><path
             d="m 0,0 c -3.596,0.607 -6.583,1.587 -8.965,2.941 -3.081,1.634 -5.066,3.688 -5.953,6.163 -0.42,1.261 -0.117,2.44 0.911,3.538 1.027,1.096 2.147,1.341 3.361,0.735 0.374,-0.188 0.864,-0.7 1.471,-1.541 2.102,-2.568 5.509,-4.249 10.226,-5.042 3.314,-0.515 6.373,-0.468 9.175,0.14 4.015,0.84 6.584,2.707 7.704,5.602 0.7,1.775 0.77,3.455 0.21,5.043 -1.214,3.548 -5.417,6.069 -12.607,7.565 -4.062,0.839 -7.353,1.796 -9.875,2.871 -4.109,1.633 -6.981,3.828 -8.615,6.584 -1.074,1.821 -1.623,4.085 -1.646,6.794 -0.024,2.707 0.362,4.714 1.156,6.022 3.175,6.35 8.965,9.525 17.37,9.525 3.875,0 7.353,-0.607 10.435,-1.821 1.961,-0.747 3.63,-1.716 5.007,-2.906 1.377,-1.191 2.3,-2.441 2.767,-3.747 0.421,-1.168 0.211,-2.266 -0.63,-3.292 -1.075,-1.308 -2.288,-1.588 -3.642,-0.84 -0.14,0.093 -0.315,0.245 -0.525,0.455 -0.211,0.21 -0.362,0.338 -0.456,0.385 -1.54,1.727 -3.571,3.057 -6.093,3.992 -1.588,0.606 -3.876,0.911 -6.863,0.911 -3.176,0 -5.919,-0.678 -8.23,-2.031 -2.311,-1.355 -3.467,-3.502 -3.467,-6.443 0,-2.756 1.191,-4.798 3.572,-6.129 2.382,-1.33 6.794,-2.79 13.237,-4.377 C 21.314,28.108 26.497,21.805 24.584,12.187 24.069,9.758 23.019,7.645 21.432,5.848 19.844,4.05 18.011,2.742 15.934,1.926 13.855,1.108 11.953,0.514 10.226,0.14 8.498,-0.233 6.934,-0.42 5.533,-0.42 3.665,-0.42 1.821,-0.28 0,0"
             style="fill:#70c7d7;fill-opacity:1;fill-rule:nonzero;stroke:none"
             id="path34" /></g><g
           id="g36"
           transform="translate(804.998,693.1191)"><path
             d="M 0,0 -13.447,38.801 -26.684,0 c -0.56,-1.541 -1.658,-2.312 -3.292,-2.312 -1.634,0 -2.731,0.771 -3.292,2.312 l -16.388,48.466 c -0.327,0.933 -0.281,1.832 0.139,2.696 0.421,0.863 1.075,1.459 1.961,1.786 0.934,0.326 1.832,0.281 2.698,-0.14 0.863,-0.42 1.458,-1.075 1.785,-1.961 l 13.097,-38.801 13.238,38.801 c 0.559,1.541 1.656,2.311 3.291,2.311 1.634,0 2.731,-0.77 3.292,-2.311 L 3.292,12.046 16.179,50.847 c 0.326,0.886 0.922,1.541 1.786,1.961 0.863,0.421 1.762,0.466 2.696,0.14 0.887,-0.327 1.541,-0.923 1.962,-1.786 0.42,-0.864 0.466,-1.763 0.14,-2.696 L 6.584,0 C 6.023,-1.541 4.926,-2.312 3.292,-2.312 1.657,-2.312 0.561,-1.541 0,0"
             style="fill:#70c7d7;fill-opacity:1;fill-rule:nonzero;stroke:none"
             id="path38" /></g><g
           id="g40"
           transform="translate(870.5537,698.0215)"><path
             d="m 0,0 c 0.98,0 1.81,-0.34 2.486,-1.016 0.677,-0.677 1.016,-1.505 1.016,-2.486 0,-0.98 -0.339,-1.81 -1.016,-2.486 C 1.81,-6.666 0.98,-7.004 0,-7.004 h -33.478 c -0.934,0 -1.751,0.338 -2.451,1.016 -0.701,0.676 -1.05,1.506 -1.05,2.486 v 48.046 c 0,0.98 0.349,1.809 1.05,2.486 0.7,0.676 1.517,1.016 2.451,1.016 H -0.7 c 0.98,0 1.808,-0.34 2.486,-1.016 0.677,-0.677 1.016,-1.506 1.016,-2.486 0,-0.981 -0.339,-1.811 -1.016,-2.486 C 1.108,41.38 0.28,41.042 -0.7,41.042 H -29.976 V 24.163 h 25.914 c 0.981,0 1.809,-0.351 2.487,-1.051 0.676,-0.7 1.014,-1.517 1.014,-2.451 0,-0.98 -0.338,-1.81 -1.014,-2.486 -0.678,-0.678 -1.506,-1.016 -2.487,-1.016 H -29.976 V 0 Z"
             style="fill:#70c7d7;fill-opacity:1;fill-rule:nonzero;stroke:none"
             id="path42" /></g><g
           id="g44"
           transform="translate(915.0273,691.8926)"><path
             d="m 0,0 c -0.654,0.537 -1.075,1.227 -1.261,2.066 -0.841,4.296 -2.172,7.728 -3.992,10.296 -1.308,1.914 -2.941,3.338 -4.903,4.273 -1.26,0.653 -2.615,1.026 -4.062,1.12 -0.28,0 -0.748,-0.012 -1.401,-0.035 -0.654,-0.024 -1.145,-0.035 -1.471,-0.035 -0.887,0 -1.67,0.315 -2.346,0.946 -0.677,0.63 -1.04,1.389 -1.085,2.276 -0.094,0.886 0.127,1.692 0.665,2.416 0.537,0.724 1.249,1.156 2.136,1.296 0.981,0.233 2.171,0.303 3.573,0.21 3.547,0.186 6.418,0.91 8.614,2.171 3.034,1.727 4.553,4.599 4.553,8.614 0,2.708 -0.515,5.02 -1.541,6.935 -0.701,1.261 -1.776,2.334 -3.222,3.222 -1.776,0.98 -3.549,1.47 -5.323,1.47 H -28.365 V 2.697 c 0,-0.934 -0.34,-1.751 -1.016,-2.452 -0.678,-0.7 -1.506,-1.05 -2.486,-1.05 -0.935,0 -1.751,0.35 -2.451,1.05 -0.702,0.701 -1.051,1.518 -1.051,2.452 v 48.046 c 0,0.981 0.349,1.809 1.051,2.486 0.7,0.676 1.516,1.016 2.451,1.016 h 20.801 c 1.306,0 2.684,-0.187 4.132,-0.56 3.174,-0.795 5.813,-2.242 7.914,-4.343 1.587,-1.588 2.801,-3.456 3.642,-5.603 0.934,-2.428 1.4,-5.136 1.4,-8.125 0,-6.723 -2.684,-11.626 -8.053,-14.707 l -1.121,-0.56 C -1.892,19.319 -0.748,18.105 0.28,16.704 2.754,13.343 4.528,8.906 5.603,3.397 5.789,2.463 5.613,1.587 5.077,0.771 4.54,-0.047 3.805,-0.549 2.871,-0.735 2.777,-0.735 2.649,-0.747 2.486,-0.77 2.322,-0.794 2.217,-0.805 2.171,-0.805 1.376,-0.805 0.653,-0.537 0,0"
             style="fill:#70c7d7;fill-opacity:1;fill-rule:nonzero;stroke:none"
             id="path46" /></g><g
           id="g48"
           transform="translate(879.2529,598.0303)"><path
             d="m 0,0 c 0,-22.117 -17.93,-40.046 -40.046,-40.046 -22.117,0 -40.047,17.929 -40.047,40.046 0,22.117 17.93,40.046 40.047,40.046 C -17.93,40.046 0,22.117 0,0"
             style="fill:#70c7d7;fill-opacity:1;fill-rule:nonzero;stroke:none"
             id="path50" /></g><g
           id="g52"
           transform="translate(857.1074,598.0303)"><path
             d="m 0,0 c 0,-9.886 -8.015,-17.901 -17.9,-17.901 -9.887,0 -17.902,8.015 -17.902,17.901 0,9.887 8.015,17.901 17.902,17.901 C -8.015,17.901 0,9.887 0,0"
             style="fill:#ffffff;fill-opacity:1;fill-rule:nonzero;stroke:none"
             id="path54" /></g><g
           id="g56"
           transform="translate(404.9116,816.5474)"><path
             d="m 0,0 c 12.775,-29.03 25.551,-58.06 38.327,-87.089 12.715,-28.894 25.431,-57.788 38.147,-86.683 l 38.147,-86.682 c 12.775,-29.03 25.551,-58.06 38.327,-87.089 12.715,-28.895 25.43,-57.789 38.146,-86.683 1.613,-3.663 3.224,-7.325 4.836,-10.988 2.738,-5.078 6.479,-9.153 11.222,-12.225 4.209,-3.851 9.147,-6.45 14.817,-7.799 5.792,-1.815 11.583,-2.075 17.375,-0.778 5.799,0.264 11.198,1.987 16.199,5.171 9.304,5.998 17.494,14.929 20.024,26.039 0.519,3.861 1.038,7.723 1.557,11.583 -0.025,7.865 -2.007,15.195 -5.949,21.991 -12.775,29.03 -25.55,58.06 -38.326,87.09 -12.716,28.894 -25.432,57.788 -38.147,86.683 l -38.148,86.682 -38.326,87.089 C 105.512,-24.793 92.796,4.101 80.081,32.995 l -4.836,10.987 c -2.738,5.078 -6.479,9.153 -11.222,12.226 -4.208,3.851 -9.148,6.45 -14.817,7.798 -5.792,1.816 -11.583,2.076 -17.375,0.778 -5.798,-0.263 -11.198,-1.986 -16.2,-5.17 C 6.328,53.616 -1.862,44.684 -4.392,33.574 -4.911,29.713 -5.43,25.853 -5.949,21.991 -5.924,14.126 -3.941,6.796 0,0"
             style="fill:#40a7df;fill-opacity:1;fill-rule:nonzero;stroke:none"
             id="path58" /></g><g
           id="g60"
           transform="translate(755.3643,354.707)"><path
             d="m 0,0 c 0,-44.171 -35.808,-79.979 -79.979,-79.979 -44.17,0 -79.978,35.808 -79.978,79.979 0,44.171 35.808,79.979 79.978,79.979 C -35.808,79.979 0,44.171 0,0"
             style="fill:#439ed0;fill-opacity:1;fill-rule:nonzero;stroke:none"
             id="path62" /></g><g
           id="g64"
           transform="translate(726.4883,354.707)"><path
             d="m 0,0 c 0,-28.224 -22.879,-51.103 -51.103,-51.103 -28.223,0 -51.102,22.879 -51.102,51.103 0,28.223 22.879,51.103 51.102,51.103 C -22.879,51.103 0,28.223 0,0"
             style="fill:#ffffff;fill-opacity:1;fill-rule:nonzero;stroke:none"
             id="path66" /></g><g
           id="g68"
           transform="translate(395.7998,851.9946)"><path
             d="m 0,0 c -10.276,-29.875 -20.553,-59.75 -30.829,-89.626 -10.327,-30.02 -20.653,-60.041 -30.979,-90.061 -10.276,-29.875 -20.553,-59.75 -30.83,-89.626 -10.326,-30.02 -20.652,-60.04 -30.978,-90.061 -10.277,-29.876 -20.553,-59.751 -30.83,-89.626 -1.297,-3.77 -2.594,-7.541 -3.891,-11.312 -1.89,-6.028 -2.16,-12.057 -0.81,-18.085 0.274,-6.036 2.068,-11.657 5.382,-16.863 2.85,-5.285 6.744,-9.527 11.682,-12.725 4.38,-4.009 9.521,-6.715 15.424,-8.118 4.019,-0.54 8.037,-1.08 12.056,-1.62 8.187,0.025 15.818,2.09 22.892,6.192 3.06,2.364 6.119,4.728 9.179,7.092 5.621,5.659 9.509,12.33 11.664,20.014 10.277,29.875 20.553,59.75 30.829,89.625 10.327,30.02 20.653,60.041 30.979,90.061 10.277,29.875 20.553,59.751 30.83,89.626 10.326,30.02 20.652,60.041 30.979,90.061 10.276,29.875 20.552,59.751 30.829,89.626 1.297,3.771 2.594,7.541 3.891,11.312 1.89,6.029 2.16,12.057 0.81,18.086 -0.274,6.035 -2.068,11.656 -5.383,16.862 -2.85,5.286 -6.743,9.527 -11.681,12.725 -4.38,4.009 -9.522,6.715 -15.423,8.118 l -12.058,1.62 C 35.547,33.272 27.917,31.208 20.843,27.105 17.783,24.741 14.724,22.377 11.664,20.013 6.043,14.354 2.155,7.683 0,0"
             style="fill:#225277;fill-opacity:1;fill-rule:nonzero;stroke:none"
             id="path70" /></g><g
           id="g72"
           transform="translate(296.395,302.499)"><path
             d="m 0,0 c 14.12,13.8 29.021,26.751 44.638,38.831 -2.726,-2.106 -5.452,-4.212 -8.178,-6.318 34.67,26.636 72.621,48.737 112.862,65.823 -3.217,-1.357 -6.434,-2.716 -9.652,-4.073 41.118,17.302 84.329,29.256 128.539,35.272 -3.581,-0.481 -7.161,-0.962 -10.742,-1.443 15.603,2.07 31.279,3.409 47.007,3.995 10.599,0.394 20.973,4.235 28.571,11.834 7.008,7.009 12.287,18.507 11.835,28.572 -0.467,10.45 -3.9,21.288 -11.835,28.571 -7.735,7.101 -17.776,12.238 -28.571,11.835 C 201.259,209.054 98.839,175.232 14.18,115.9 -11.048,98.219 -35.104,78.682 -57.144,57.144 -72.286,42.345 -73.099,14.646 -57.144,0 -40.861,-14.947 -16.157,-15.789 0,0"
             style="fill:#70c7d7;fill-opacity:1;fill-rule:nonzero;stroke:none"
             id="path74" /></g><g
           id="g76"
           transform="translate(337.5879,342.1514)"><path
             d="m 0,0 c 0,-36.469 -29.563,-66.032 -66.032,-66.032 -36.469,0 -66.032,29.563 -66.032,66.032 0,36.469 29.563,66.032 66.032,66.032 C -29.563,66.032 0,36.469 0,0"
             style="fill:#225277;fill-opacity:1;fill-rule:nonzero;stroke:none"
             id="path78" /></g><g
           id="g80"
           transform="translate(310.4448,342.1514)"><path
             d="m 0,0 c 0,-21.478 -17.411,-38.889 -38.889,-38.889 -21.478,0 -38.889,17.411 -38.889,38.889 0,21.478 17.411,38.889 38.889,38.889 C -17.411,38.889 0,21.478 0,0"
             style="fill:#ffffff;fill-opacity:1;fill-rule:nonzero;stroke:none"
             id="path82" /></g><g
           id="g84"
           transform="translate(485.4712,840.9272)"><path
             d="m 0,0 c 0,-25.033 -20.293,-45.326 -45.325,-45.326 -25.033,0 -45.326,20.293 -45.326,45.326 0,25.032 20.293,45.325 45.326,45.325 C -20.293,45.325 0,25.032 0,0"
             style="fill:#225277;fill-opacity:1;fill-rule:nonzero;stroke:none"
             id="path86" /></g></g></g></g></svg>
