<?xml version="1.0" encoding="UTF-8" standalone="no"?>
<svg
   xmlns:dc="http://purl.org/dc/elements/1.1/"
   xmlns:cc="http://creativecommons.org/ns#"
   xmlns:rdf="http://www.w3.org/1999/02/22-rdf-syntax-ns#"
   xmlns:svg="http://www.w3.org/2000/svg"
   xmlns="http://www.w3.org/2000/svg"
   xmlns:sodipodi="http://sodipodi.sourceforge.net/DTD/sodipodi-0.dtd"
   xmlns:inkscape="http://www.inkscape.org/namespaces/inkscape"
   viewBox="0 0 427.52203 76.479996"
   height="76.479996"
   width="427.52203"
   xml:space="preserve"
   id="svg2"
   version="1.1"
   sodipodi:docname="answer-logo-onlytext-dark.svg"
   inkscape:version="0.92.5 (2060ec1f9f, 2020-04-08)"><sodipodi:namedview
     inkscape:document-rotation="0"
     pagecolor="#ffffff"
     bordercolor="#666666"
     borderopacity="1"
     objecttolerance="10"
     gridtolerance="10"
     guidetolerance="10"
     inkscape:pageopacity="0"
     inkscape:pageshadow="2"
     inkscape:window-width="1864"
     inkscape:window-height="1016"
     id="namedview893"
     showgrid="false"
     inkscape:zoom="0.46388889"
     inkscape:cx="-80.54367"
     inkscape:cy="190.11564"
     inkscape:window-x="1976"
     inkscape:window-y="27"
     inkscape:window-maximized="1"
     inkscape:current-layer="g32" /><metadata
     id="metadata8"><rdf:RDF><cc:Work
         rdf:about=""><dc:format>image/svg+xml</dc:format><dc:type
           rdf:resource="http://purl.org/dc/dcmitype/StillImage" /><dc:title /></cc:Work></rdf:RDF></metadata><defs
     id="defs6"><clipPath
       id="clipPath18"
       clipPathUnits="userSpaceOnUse"><path
         id="path16"
         d="M 0,1080 H 1080 V 0 H 0 Z"
         inkscape:connector-curvature="0" /></clipPath></defs><g
     transform="matrix(1.3333333,0,0,-1.3333333,-800.54366,996.34318)"
     id="g10"><g
       id="g12"><g
         clip-path="url(#clipPath18)"
         id="g14"><g
           style="fill:#f2f2f2"
           transform="translate(612.8164,705.5156)"
           id="g24"><path
             id="path26"
             style="fill:#f2f2f2;fill-opacity:1;fill-rule:nonzero;stroke:none"
             d="m 0,0 c 4.155,2.334 8.335,3.922 12.537,4.763 3.548,0.793 7.377,1.003 11.486,0.63 L 13.447,28.646 Z m 34.108,-14.323 c -0.934,0.303 -1.634,0.922 -2.1,1.856 l -4.833,10.786 c -4.576,1.12 -9.082,1.191 -13.517,0.21 -3.689,-0.701 -7.191,-2.078 -10.506,-4.133 -3.596,-2.241 -6.864,-4.786 -9.805,-7.633 -1.495,-1.494 -3.012,-1.775 -4.553,-0.841 -1.355,0.887 -1.565,2.404 -0.63,4.553 l 22.132,48.046 c 0.7,1.353 1.774,2.031 3.222,2.031 1.541,0 2.591,-0.678 3.151,-2.031 L 38.451,-9.525 c 0.373,-0.935 0.397,-1.845 0.07,-2.732 -0.327,-0.888 -0.934,-1.541 -1.821,-1.961 -0.795,-0.373 -1.658,-0.408 -2.592,-0.105"
             inkscape:connector-curvature="0" /></g><g
           style="fill:#f2f2f2"
           transform="translate(697.6318,692.208)"
           id="g28"><path
             id="path30"
             style="fill:#f2f2f2;fill-opacity:1;fill-rule:nonzero;stroke:none"
             d="M 0,0 -33.828,40.692 V 2.312 c 0,-0.981 -0.34,-1.811 -1.016,-2.487 -0.677,-0.678 -1.506,-1.015 -2.486,-1.015 -0.981,0 -1.811,0.337 -2.486,1.015 -0.678,0.676 -1.016,1.506 -1.016,2.487 v 48.045 c 0,1.634 0.77,2.732 2.311,3.292 1.541,0.56 2.825,0.21 3.852,-1.05 L -0.771,11.977 v 38.451 c 0,0.98 0.338,1.808 1.016,2.486 0.676,0.676 1.506,1.016 2.486,1.016 0.934,0 1.751,-0.34 2.452,-1.016 0.7,-0.678 1.05,-1.506 1.05,-2.486 V 2.241 C 6.233,0.561 5.509,-0.49 4.062,-0.91 2.287,-1.424 0.934,-1.12 0,0"
             inkscape:connector-curvature="0" /></g><g
           transform="translate(724.5254,690.3174)"
           id="g32"><path
             id="path34"
             style="fill:#f2f2f2;fill-opacity:1;fill-rule:nonzero;stroke:none"
             d="m 0,0 c -3.596,0.607 -6.583,1.587 -8.965,2.941 -3.081,1.634 -5.066,3.688 -5.953,6.163 -0.42,1.261 -0.117,2.44 0.911,3.538 1.027,1.096 2.147,1.341 3.361,0.735 0.374,-0.188 0.864,-0.7 1.471,-1.541 2.102,-2.568 5.509,-4.249 10.226,-5.042 3.314,-0.515 6.373,-0.468 9.175,0.14 4.015,0.84 6.584,2.707 7.704,5.602 0.7,1.775 0.77,3.455 0.21,5.043 -1.214,3.548 -5.417,6.069 -12.607,7.565 -4.062,0.839 -7.353,1.796 -9.875,2.871 -4.109,1.633 -6.981,3.828 -8.615,6.584 -1.074,1.821 -1.623,4.085 -1.646,6.794 -0.024,2.707 0.362,4.714 1.156,6.022 3.175,6.35 8.965,9.525 17.37,9.525 3.875,0 7.353,-0.607 10.435,-1.821 1.961,-0.747 3.63,-1.716 5.007,-2.906 1.377,-1.191 2.3,-2.441 2.767,-3.747 0.421,-1.168 0.211,-2.266 -0.63,-3.292 -1.075,-1.308 -2.288,-1.588 -3.642,-0.84 -0.14,0.093 -0.315,0.245 -0.525,0.455 -0.211,0.21 -0.362,0.338 -0.456,0.385 -1.54,1.727 -3.571,3.057 -6.093,3.992 -1.588,0.606 -3.876,0.911 -6.863,0.911 -3.176,0 -5.919,-0.678 -8.23,-2.031 -2.311,-1.355 -3.467,-3.502 -3.467,-6.443 0,-2.756 1.191,-4.798 3.572,-6.129 2.382,-1.33 6.794,-2.79 13.237,-4.377 C 21.314,28.108 26.497,21.805 24.584,12.187 24.069,9.758 23.019,7.645 21.432,5.848 19.844,4.05 18.011,2.742 15.934,1.926 13.855,1.108 11.953,0.514 10.226,0.14 8.498,-0.233 6.934,-0.42 5.533,-0.42 3.665,-0.42 1.821,-0.28 0,0"
             inkscape:connector-curvature="0" /></g><g
           style="fill:#f2f2f2"
           transform="translate(804.998,693.1191)"
           id="g36"><path
             id="path38"
             style="fill:#f2f2f2;fill-opacity:1;fill-rule:nonzero;stroke:none"
             d="M 0,0 -13.447,38.801 -26.684,0 c -0.56,-1.541 -1.658,-2.312 -3.292,-2.312 -1.634,0 -2.731,0.771 -3.292,2.312 l -16.388,48.466 c -0.327,0.933 -0.281,1.832 0.139,2.696 0.421,0.863 1.075,1.459 1.961,1.786 0.934,0.326 1.832,0.281 2.698,-0.14 0.863,-0.42 1.458,-1.075 1.785,-1.961 l 13.097,-38.801 13.238,38.801 c 0.559,1.541 1.656,2.311 3.291,2.311 1.634,0 2.731,-0.77 3.292,-2.311 L 3.292,12.046 16.179,50.847 c 0.326,0.886 0.922,1.541 1.786,1.961 0.863,0.421 1.762,0.466 2.696,0.14 0.887,-0.327 1.541,-0.923 1.962,-1.786 0.42,-0.864 0.466,-1.763 0.14,-2.696 L 6.584,0 C 6.023,-1.541 4.926,-2.312 3.292,-2.312 1.657,-2.312 0.561,-1.541 0,0"
             inkscape:connector-curvature="0" /></g><g
           style="fill:#f2f2f2"
           transform="translate(870.5537,698.0215)"
           id="g40"><path
             id="path42"
             style="fill:#f2f2f2;fill-opacity:1;fill-rule:nonzero;stroke:none"
             d="m 0,0 c 0.98,0 1.81,-0.34 2.486,-1.016 0.677,-0.677 1.016,-1.505 1.016,-2.486 0,-0.98 -0.339,-1.81 -1.016,-2.486 C 1.81,-6.666 0.98,-7.004 0,-7.004 h -33.478 c -0.934,0 -1.751,0.338 -2.451,1.016 -0.701,0.676 -1.05,1.506 -1.05,2.486 v 48.046 c 0,0.98 0.349,1.809 1.05,2.486 0.7,0.676 1.517,1.016 2.451,1.016 H -0.7 c 0.98,0 1.808,-0.34 2.486,-1.016 0.677,-0.677 1.016,-1.506 1.016,-2.486 0,-0.981 -0.339,-1.811 -1.016,-2.486 C 1.108,41.38 0.28,41.042 -0.7,41.042 H -29.976 V 24.163 h 25.914 c 0.981,0 1.809,-0.351 2.487,-1.051 0.676,-0.7 1.014,-1.517 1.014,-2.451 0,-0.98 -0.338,-1.81 -1.014,-2.486 -0.678,-0.678 -1.506,-1.016 -2.487,-1.016 H -29.976 V 0 Z"
             inkscape:connector-curvature="0" /></g><g
           style="fill:#f2f2f2"
           transform="translate(915.0273,691.8926)"
           id="g44"><path
             id="path46"
             style="fill:#f2f2f2;fill-opacity:1;fill-rule:nonzero;stroke:none"
             d="m 0,0 c -0.654,0.537 -1.075,1.227 -1.261,2.066 -0.841,4.296 -2.172,7.728 -3.992,10.296 -1.308,1.914 -2.941,3.338 -4.903,4.273 -1.26,0.653 -2.615,1.026 -4.062,1.12 -0.28,0 -0.748,-0.012 -1.401,-0.035 -0.654,-0.024 -1.145,-0.035 -1.471,-0.035 -0.887,0 -1.67,0.315 -2.346,0.946 -0.677,0.63 -1.04,1.389 -1.085,2.276 -0.094,0.886 0.127,1.692 0.665,2.416 0.537,0.724 1.249,1.156 2.136,1.296 0.981,0.233 2.171,0.303 3.573,0.21 3.547,0.186 6.418,0.91 8.614,2.171 3.034,1.727 4.553,4.599 4.553,8.614 0,2.708 -0.515,5.02 -1.541,6.935 -0.701,1.261 -1.776,2.334 -3.222,3.222 -1.776,0.98 -3.549,1.47 -5.323,1.47 H -28.365 V 2.697 c 0,-0.934 -0.34,-1.751 -1.016,-2.452 -0.678,-0.7 -1.506,-1.05 -2.486,-1.05 -0.935,0 -1.751,0.35 -2.451,1.05 -0.702,0.701 -1.051,1.518 -1.051,2.452 v 48.046 c 0,0.981 0.349,1.809 1.051,2.486 0.7,0.676 1.516,1.016 2.451,1.016 h 20.801 c 1.306,0 2.684,-0.187 4.132,-0.56 3.174,-0.795 5.813,-2.242 7.914,-4.343 1.587,-1.588 2.801,-3.456 3.642,-5.603 0.934,-2.428 1.4,-5.136 1.4,-8.125 0,-6.723 -2.684,-11.626 -8.053,-14.707 l -1.121,-0.56 C -1.892,19.319 -0.748,18.105 0.28,16.704 2.754,13.343 4.528,8.906 5.603,3.397 5.789,2.463 5.613,1.587 5.077,0.771 4.54,-0.047 3.805,-0.549 2.871,-0.735 2.777,-0.735 2.649,-0.747 2.486,-0.77 2.322,-0.794 2.217,-0.805 2.171,-0.805 1.376,-0.805 0.653,-0.537 0,0"
             inkscape:connector-curvature="0" /></g></g></g></g></svg>