<?xml version="1.0" encoding="utf-8"?>
<!-- Generator: Adobe Illustrator 25.2.3, SVG Export Plug-In . SVG Version: 6.00 Build 0)  -->
<svg version="1.1" id="레이어_1" xmlns="http://www.w3.org/2000/svg" xmlns:xlink="http://www.w3.org/1999/xlink" x="0px"
	 y="0px" viewBox="0 0 386.07 119.67" style="enable-background:new 0 0 386.07 119.67;" xml:space="preserve">
<style type="text/css">
	.st0{fill:#202020;}
	.st1{fill:#0086CD;}
</style>
<path class="st0" d="M78.07,115.05H66.2l-7.25-20.5c-0.48-1.36-1.77-2.27-3.21-2.27H25.5c-1.44,0-2.73,0.91-3.21,2.27l-7.2,20.49
	H3.22l29.65-77.84c1.22-3.21,4.3-5.34,7.74-5.34h5.78L78.07,115.05z M31.26,82.89h18.75c2.35,0,3.99-2.32,3.21-4.54l-9.45-26.71
	c-1.07-3.03-5.36-3.02-6.42,0.02l-9.3,26.71C27.27,80.58,28.92,82.89,31.26,82.89z"/>
<path class="st0" d="M181.09,115.05h-12.67l-13.8-23.09c-2.76-4.62-5.28-7.76-7.57-9.42c-2.29-1.66-5.03-2.5-8.22-2.5h-4.33
	c-1.88,0-3.4,1.52-3.4,3.4v31.61h-10.74V38.68c0-3.76,3.05-6.8,6.8-6.8h18.54c8.09,0,14.43,1.95,19.01,5.85
	c4.58,3.9,6.87,9.36,6.87,16.38c0,11.53-6.16,19.01-18.47,22.45v0.27c2.29,0.97,4.27,2.34,5.93,4.13c1.66,1.79,3.82,4.85,6.47,9.18
	L181.09,115.05z M131.09,44.67v22.57c0,1.88,1.52,3.4,3.4,3.4h9.27c4.9,0,8.89-1.43,11.95-4.3c3.06-2.86,4.59-6.62,4.59-11.28
	c0-4.33-1.4-7.71-4.19-10.15c-2.79-2.44-6.86-3.65-12.19-3.65h-9.43C132.62,41.27,131.09,42.8,131.09,44.67z"/>
<path class="st0" d="M235.7,74.43c0-12.99,3.51-23.33,10.55-31.01c7.03-7.69,16.55-11.53,28.57-11.53
	c11.19,0,20.19,3.76,27.01,11.27s10.23,17.3,10.23,29.35c0,13.06-3.5,23.41-10.49,31.06c-7,7.65-16.35,11.48-28.05,11.48
	c-11.43,0-20.59-3.76-27.48-11.27C239.14,96.27,235.7,86.48,235.7,74.43z M246.61,73.6c0,9.73,2.48,17.53,7.45,23.4
	c4.97,5.87,11.45,8.8,19.45,8.8c8.59,0,15.33-2.81,20.23-8.44c4.9-5.63,7.35-13.5,7.35-23.61c0-10.39-2.4-18.41-7.19-24.05
	c-4.8-5.64-11.37-8.47-19.71-8.47c-8.21,0-14.86,2.98-19.95,8.93C249.15,56.13,246.61,63.94,246.61,73.6z"/>
<path class="st0" d="M368.48,36.4c1.41-2.78,4.27-4.52,7.38-4.52h6.36l-27,51.83c-0.25,0.49-0.38,1.02-0.38,1.57v29.77h-10.79V85.52
	c0-0.53-0.13-1.06-0.37-1.53l-26.32-52.12h7.12c3.17,0,6.05,1.8,7.44,4.65c0,0,9.66,19.99,14.75,30.67c1.21,2.55,4.82,2.59,6.1,0.07
	L368.48,36.4z"/>
<path class="st0" d="M92.75,38.17c-2.3,3.38-2.02,8.68-2.02,8.68s-0.01,20.88,0,25.98l0,0v27.25c0.01,8.08,0,10.11-0.71,12.7
	c-1.55,5.66,7.14-0.64,9.44-4.03c2.3-3.38,2.02-8.68,2.02-8.68s0.01-22.15,0-27.25l0,0V46.85c-0.01-8.08,0-10.11,0.71-12.7
	C103.74,28.49,95.05,34.79,92.75,38.17z"/>
<path class="st0" d="M220.26,32.5c-2.35,1.19-5.42,3.84-6.66,5.66c-1.45,2.13-1.9,5.03-2.02,6.87c-0.07,1.08,0,1.8,0,1.8v36.62
	c0,14.68-4.34,22.02-13.07,22.02c-0.03,0-0.07,0-0.1,0c-0.03,0-0.05,0.01-0.08,0.01c-4.07-0.03-5.69-0.17-7.63-0.7
	c-3.71-1.01-2.27,2.37,0.11,5.47c1.25,1.63,2.58,3.28,5.17,4.67c0.89,0.21,1.68,0.11,2.59,0.11c1.7,0,3.3-0.16,4.84-0.46
	c5.09-0.98,9.29-3.56,12.56-7.78c4.26-5.5,6.39-13.27,6.39-23.33V40.5c0.05-3.16,0.22-4.64,0.69-6.37
	C223.76,31.52,222.28,31.47,220.26,32.5z"/>
<path class="st1" d="M106.49,3.28c0,0-17.88,6.17-15.54,26.46c0,0,7.66-0.78,11.92-9.65C107.12,11.23,103.15,8.39,106.49,3.28z"/>
</svg>
