<?xml version="1.0" encoding="utf-8"?>
<!-- Generator: Adobe Illustrator 25.2.3, SVG Export Plug-In . SVG Version: 6.00 Build 0)  -->
<svg version="1.1" id="Layer_1" xmlns="http://www.w3.org/2000/svg" xmlns:xlink="http://www.w3.org/1999/xlink" x="0px" y="0px"
	 viewBox="0 0 512 512" style="enable-background:new 0 0 512 512;" xml:space="preserve">
<style type="text/css">
	.st0{fill:#313232;}
	.st1{fill:#0085CD;}
</style>
<g>
	<path class="st0" d="M223.3,369.7h-26.7l-16.3-46.1c-1.1-3.1-4-5.1-7.2-5.1h-68c-3.2,0-6.1,2.1-7.2,5.1l-16.2,46.1H55l66.7-175.1
		c2.8-7.2,9.7-12,17.4-12h13L223.3,369.7z M118.1,297.3h42.2c5.3,0,9-5.2,7.2-10.2l-21.3-60.1c-2.4-6.8-12.1-6.8-14.4,0l-20.9,60.1
		C109.1,292.2,112.8,297.3,118.1,297.3z"/>
	<path class="st0" d="M455,369.7h-28.5l-31-51.9c-6.2-10.4-11.9-17.5-17-21.2c-5.2-3.7-11.3-5.6-18.5-5.6h-9.7
		c-4.2,0-7.7,3.4-7.7,7.7v71.1h-24.2V197.9c0-8.5,6.9-15.3,15.3-15.3h41.7c18.2,0,32.4,4.4,42.7,13.2c10.3,8.8,15.5,21.1,15.5,36.8
		c0,25.9-13.8,42.7-41.5,50.5v0.6c5.1,2.2,9.6,5.3,13.3,9.3s8.6,10.9,14.5,20.6L455,369.7z M342.6,211.4v50.8c0,4.2,3.4,7.7,7.7,7.7
		h20.8c11,0,20-3.2,26.9-9.7c6.9-6.4,10.3-14.9,10.3-25.4c0-9.7-3.1-17.3-9.4-22.8c-6.3-5.5-15.4-8.2-27.4-8.2h-21.2
		C346,203.8,342.6,207.2,342.6,211.4z"/>
	<path class="st0" d="M256.3,196.8c-5.2,7.6-4.5,19.5-4.5,19.5s0,47,0,58.4l0,0V336c0,18.2,0,22.7-1.6,28.6
		c-3.5,12.7,16.1-1.4,21.2-9.1c5.2-7.6,4.5-19.5,4.5-19.5s0-49.8,0-61.3l0,0v-58.4c0-18.2,0-22.7,1.6-28.6
		C281.1,175,261.5,189.2,256.3,196.8z"/>
	<path class="st1" d="M287.2,118.3c0,0-40.2,13.9-34.9,59.5c0,0,17.2-1.8,26.8-21.7C288.7,136.2,279.7,129.8,287.2,118.3z"/>
</g>
</svg>
