<?xml version="1.0" encoding="UTF-8" standalone="no"?>
<svg
   xmlns:dc="http://purl.org/dc/elements/1.1/"
   xmlns:cc="http://creativecommons.org/ns#"
   xmlns:rdf="http://www.w3.org/1999/02/22-rdf-syntax-ns#"
   xmlns:svg="http://www.w3.org/2000/svg"
   xmlns="http://www.w3.org/2000/svg"
   xmlns:sodipodi="http://sodipodi.sourceforge.net/DTD/sodipodi-0.dtd"
   xmlns:inkscape="http://www.inkscape.org/namespaces/inkscape"
   inkscape:version="1.0 (4035a4f, 2020-05-01)"
   sodipodi:docname="answer-logo-notext.svg"
   version="1.1"
   id="svg2"
   xml:space="preserve"
   width="1440"
   height="1440"
   viewBox="0 0 1440 1440"><sodipodi:namedview
     inkscape:current-layer="g14"
     inkscape:window-maximized="1"
     inkscape:window-y="23"
     inkscape:window-x="37"
     inkscape:cy="720"
     inkscape:cx="720"
     inkscape:zoom="0.46388889"
     showgrid="false"
     id="namedview875"
     inkscape:window-height="1035"
     inkscape:window-width="1883"
     inkscape:pageshadow="2"
     inkscape:pageopacity="0"
     guidetolerance="10"
     gridtolerance="10"
     objecttolerance="10"
     borderopacity="1"
     bordercolor="#666666"
     pagecolor="#ffffff" /><metadata
     id="metadata8"><rdf:RDF><cc:Work
         rdf:about=""><dc:format>image/svg+xml</dc:format><dc:type
           rdf:resource="http://purl.org/dc/dcmitype/StillImage" /><dc:title></dc:title></cc:Work></rdf:RDF></metadata><defs
     id="defs6"><clipPath
       clipPathUnits="userSpaceOnUse"
       id="clipPath18"><path
         d="M 0,1080 H 1080 V 0 H 0 Z"
         id="path16" /></clipPath></defs><g
     id="g10"
     transform="matrix(1.3333333,0,0,-1.3333333,0,1440)"><g
       id="g12"><g
         id="g14"
         clip-path="url(#clipPath18)"><g
           id="g20"
           transform="translate(740.252,339.5225)"><path
             d="m 0,0 c 9.588,17.489 19.433,34.837 29.53,52.036 10.089,17.185 20.428,34.222 31.008,51.109 6.056,9.664 12.191,19.279 18.401,28.844 3.184,5.001 4.908,10.402 5.17,16.199 1.297,5.792 1.038,11.583 -0.778,17.375 -1.348,5.67 -3.947,10.61 -7.799,14.818 -3.072,4.743 -7.146,8.484 -12.224,11.222 -3.469,1.464 -6.939,2.928 -10.409,4.392 -7.721,2.075 -15.443,2.075 -23.166,0 -3.468,-1.464 -6.938,-2.928 -10.408,-4.392 C 12.778,187.729 7.567,182.519 3.694,175.972 -7.29,159.054 -18.036,141.981 -28.529,124.754 -38.862,107.789 -48.953,90.677 -58.79,73.419 -64.356,63.653 -69.841,53.84 -75.245,43.982 c -3.184,-5.001 -4.907,-10.401 -5.17,-16.199 -1.298,-5.792 -1.038,-11.583 0.777,-17.375 1.349,-5.67 3.949,-10.608 7.799,-14.817 3.072,-4.743 7.148,-8.484 12.226,-11.222 3.468,-1.464 6.938,-2.929 10.408,-4.392 7.722,-2.076 15.443,-2.076 23.165,0 3.47,1.463 6.939,2.928 10.409,4.392 C -9.084,-11.758 -3.874,-6.547 0,0"
             style="fill:#225277;fill-opacity:1;fill-rule:nonzero;stroke:none"
             id="path22" /></g><g
           id="g48"
           transform="translate(879.2529,598.0303)"><path
             d="m 0,0 c 0,-22.117 -17.93,-40.046 -40.046,-40.046 -22.117,0 -40.047,17.929 -40.047,40.046 0,22.117 17.93,40.046 40.047,40.046 C -17.93,40.046 0,22.117 0,0"
             style="fill:#70c7d7;fill-opacity:1;fill-rule:nonzero;stroke:none"
             id="path50" /></g><g
           id="g52"
           transform="translate(857.1074,598.0303)"><path
             d="m 0,0 c 0,-9.886 -8.015,-17.901 -17.9,-17.901 -9.887,0 -17.902,8.015 -17.902,17.901 0,9.887 8.015,17.901 17.902,17.901 C -8.015,17.901 0,9.887 0,0"
             style="fill:#ffffff;fill-opacity:1;fill-rule:nonzero;stroke:none"
             id="path54" /></g><g
           id="g56"
           transform="translate(404.9116,816.5474)"><path
             d="m 0,0 c 12.775,-29.03 25.551,-58.06 38.327,-87.089 12.715,-28.894 25.431,-57.788 38.147,-86.683 l 38.147,-86.682 c 12.775,-29.03 25.551,-58.06 38.327,-87.089 12.715,-28.895 25.43,-57.789 38.146,-86.683 1.613,-3.663 3.224,-7.325 4.836,-10.988 2.738,-5.078 6.479,-9.153 11.222,-12.225 4.209,-3.851 9.147,-6.45 14.817,-7.799 5.792,-1.815 11.583,-2.075 17.375,-0.778 5.799,0.264 11.198,1.987 16.199,5.171 9.304,5.998 17.494,14.929 20.024,26.039 0.519,3.861 1.038,7.723 1.557,11.583 -0.025,7.865 -2.007,15.195 -5.949,21.991 -12.775,29.03 -25.55,58.06 -38.326,87.09 -12.716,28.894 -25.432,57.788 -38.147,86.683 l -38.148,86.682 -38.326,87.089 C 105.512,-24.793 92.796,4.101 80.081,32.995 l -4.836,10.987 c -2.738,5.078 -6.479,9.153 -11.222,12.226 -4.208,3.851 -9.148,6.45 -14.817,7.798 -5.792,1.816 -11.583,2.076 -17.375,0.778 -5.798,-0.263 -11.198,-1.986 -16.2,-5.17 C 6.328,53.616 -1.862,44.684 -4.392,33.574 -4.911,29.713 -5.43,25.853 -5.949,21.991 -5.924,14.126 -3.941,6.796 0,0"
             style="fill:#40a7df;fill-opacity:1;fill-rule:nonzero;stroke:none"
             id="path58" /></g><g
           id="g60"
           transform="translate(755.3643,354.707)"><path
             d="m 0,0 c 0,-44.171 -35.808,-79.979 -79.979,-79.979 -44.17,0 -79.978,35.808 -79.978,79.979 0,44.171 35.808,79.979 79.978,79.979 C -35.808,79.979 0,44.171 0,0"
             style="fill:#439ed0;fill-opacity:1;fill-rule:nonzero;stroke:none"
             id="path62" /></g><g
           id="g64"
           transform="translate(726.4883,354.707)"><path
             d="m 0,0 c 0,-28.224 -22.879,-51.103 -51.103,-51.103 -28.223,0 -51.102,22.879 -51.102,51.103 0,28.223 22.879,51.103 51.102,51.103 C -22.879,51.103 0,28.223 0,0"
             style="fill:#ffffff;fill-opacity:1;fill-rule:nonzero;stroke:none"
             id="path66" /></g><g
           id="g68"
           transform="translate(395.7998,851.9946)"><path
             d="m 0,0 c -10.276,-29.875 -20.553,-59.75 -30.829,-89.626 -10.327,-30.02 -20.653,-60.041 -30.979,-90.061 -10.276,-29.875 -20.553,-59.75 -30.83,-89.626 -10.326,-30.02 -20.652,-60.04 -30.978,-90.061 -10.277,-29.876 -20.553,-59.751 -30.83,-89.626 -1.297,-3.77 -2.594,-7.541 -3.891,-11.312 -1.89,-6.028 -2.16,-12.057 -0.81,-18.085 0.274,-6.036 2.068,-11.657 5.382,-16.863 2.85,-5.285 6.744,-9.527 11.682,-12.725 4.38,-4.009 9.521,-6.715 15.424,-8.118 4.019,-0.54 8.037,-1.08 12.056,-1.62 8.187,0.025 15.818,2.09 22.892,6.192 3.06,2.364 6.119,4.728 9.179,7.092 5.621,5.659 9.509,12.33 11.664,20.014 10.277,29.875 20.553,59.75 30.829,89.625 10.327,30.02 20.653,60.041 30.979,90.061 10.277,29.875 20.553,59.751 30.83,89.626 10.326,30.02 20.652,60.041 30.979,90.061 10.276,29.875 20.552,59.751 30.829,89.626 1.297,3.771 2.594,7.541 3.891,11.312 1.89,6.029 2.16,12.057 0.81,18.086 -0.274,6.035 -2.068,11.656 -5.383,16.862 -2.85,5.286 -6.743,9.527 -11.681,12.725 -4.38,4.009 -9.522,6.715 -15.423,8.118 l -12.058,1.62 C 35.547,33.272 27.917,31.208 20.843,27.105 17.783,24.741 14.724,22.377 11.664,20.013 6.043,14.354 2.155,7.683 0,0"
             style="fill:#225277;fill-opacity:1;fill-rule:nonzero;stroke:none"
             id="path70" /></g><g
           id="g72"
           transform="translate(296.395,302.499)"><path
             d="m 0,0 c 14.12,13.8 29.021,26.751 44.638,38.831 -2.726,-2.106 -5.452,-4.212 -8.178,-6.318 34.67,26.636 72.621,48.737 112.862,65.823 -3.217,-1.357 -6.434,-2.716 -9.652,-4.073 41.118,17.302 84.329,29.256 128.539,35.272 -3.581,-0.481 -7.161,-0.962 -10.742,-1.443 15.603,2.07 31.279,3.409 47.007,3.995 10.599,0.394 20.973,4.235 28.571,11.834 7.008,7.009 12.287,18.507 11.835,28.572 -0.467,10.45 -3.9,21.288 -11.835,28.571 -7.735,7.101 -17.776,12.238 -28.571,11.835 C 201.259,209.054 98.839,175.232 14.18,115.9 -11.048,98.219 -35.104,78.682 -57.144,57.144 -72.286,42.345 -73.099,14.646 -57.144,0 -40.861,-14.947 -16.157,-15.789 0,0"
             style="fill:#70c7d7;fill-opacity:1;fill-rule:nonzero;stroke:none"
             id="path74" /></g><g
           id="g76"
           transform="translate(337.5879,342.1514)"><path
             d="m 0,0 c 0,-36.469 -29.563,-66.032 -66.032,-66.032 -36.469,0 -66.032,29.563 -66.032,66.032 0,36.469 29.563,66.032 66.032,66.032 C -29.563,66.032 0,36.469 0,0"
             style="fill:#225277;fill-opacity:1;fill-rule:nonzero;stroke:none"
             id="path78" /></g><g
           id="g80"
           transform="translate(310.4448,342.1514)"><path
             d="m 0,0 c 0,-21.478 -17.411,-38.889 -38.889,-38.889 -21.478,0 -38.889,17.411 -38.889,38.889 0,21.478 17.411,38.889 38.889,38.889 C -17.411,38.889 0,21.478 0,0"
             style="fill:#ffffff;fill-opacity:1;fill-rule:nonzero;stroke:none"
             id="path82" /></g><g
           id="g84"
           transform="translate(485.4712,840.9272)"><path
             d="m 0,0 c 0,-25.033 -20.293,-45.326 -45.325,-45.326 -25.033,0 -45.326,20.293 -45.326,45.326 0,25.032 20.293,45.325 45.326,45.325 C -20.293,45.325 0,25.032 0,0"
             style="fill:#225277;fill-opacity:1;fill-rule:nonzero;stroke:none"
             id="path86" /></g></g></g></g></svg>
