<?xml version="1.0" encoding="utf-8"?>
<svg id="master-artboard" viewBox="0 0 800 190" version="1.1" xmlns="http://www.w3.org/2000/svg" x="0px" y="0px" style="enable-background:new 0 0 1400 980;" width="800px" height="190px"><defs><style id="ee-google-fonts">@import url(https://fonts.googleapis.com/css?family=Almendra+SC:400);</style></defs><rect id="ee-background" x="0" y="0" width="800" height="190" style="fill: white; fill-opacity: 0; pointer-events: none;"/>








































<path d="M 157.5800018310547 233.2288818359375 C 157.36000061035156 234.348876953125 157.2100067138672 235.50221252441406 157.1300048828125 236.6888885498047 C 157.0500030517578 237.86888122558594 157.00999450683594 239.772216796875 157.00999450683594 242.3988800048828 C 157.00999450683594 245.02554321289062 157.1133270263672 247.1055450439453 157.32000732421875 248.63888549804688 C 158.1666717529297 248.71888732910156 159.04666137695312 248.87220764160156 159.9600067138672 249.098876953125 L 159.88999938964844 249.66888427734375 C 158.70333862304688 249.54222106933594 157.4166717529297 249.4788818359375 156.02999877929688 249.4788818359375 C 154.64999389648438 249.4788818359375 153.5366668701172 249.54222106933594 152.69000244140625 249.66888427734375 L 152.58999633789062 249.06887817382812 C 153.30999755859375 248.848876953125 154.07666015625 248.68222045898438 154.88999938964844 248.56887817382812 C 155.02333068847656 247.50888061523438 155.1133270263672 245.8055419921875 155.16000366210938 243.45887756347656 C 154.32666015625 243.35888671875 153.41000366210938 243.3088836669922 152.41000366210938 243.3088836669922 C 151.41000366210938 243.3088836669922 150.56666564941406 243.35888671875 149.8800048828125 243.45887756347656 C 149.4933319091797 245.02554321289062 149.3000030517578 246.2788848876953 149.3000030517578 247.21888732910156 C 149.3000030517578 248.16554260253906 149.64334106445312 248.83888244628906 150.3300018310547 249.23887634277344 L 150.24000549316406 249.57888793945312 C 149.74000549316406 249.51222229003906 148.90333557128906 249.4788818359375 147.72999572753906 249.4788818359375 C 146.55667114257812 249.4788818359375 145.49667358398438 249.54222106933594 144.5500030517578 249.66888427734375 L 144.4499969482422 249.06887817382812 C 145.1699981689453 248.848876953125 145.94000244140625 248.68222045898438 146.75999450683594 248.56887817382812 L 150.5500030517578 235.12887573242188 C 148.663330078125 235.12887573242188 147.4566650390625 235.3855438232422 146.92999267578125 235.8988800048828 C 146.81666564941406 236.11888122558594 146.75999450683594 236.46888732910156 146.75999450683594 236.94888305664062 C 146.75999450683594 237.4288787841797 146.83999633789062 237.75888061523438 147 237.9388885498047 L 146.97000122070312 238.098876953125 C 146.57000732421875 238.33888244628906 146.1699981689453 238.67555236816406 145.77000427246094 239.10888671875 C 145.5833282470703 239.09555053710938 145.42999267578125 239.0155487060547 145.30999755859375 238.86888122558594 C 145.19000244140625 238.7288818359375 145.1300048828125 238.5622100830078 145.1300048828125 238.36888122558594 C 145.1300048828125 237.58221435546875 145.60000610351562 236.6455535888672 146.5399932861328 235.5588836669922 C 147.48666381835938 234.4722137451172 148.36666870117188 233.78555297851562 149.17999267578125 233.49888610839844 C 151.60000610351562 233.7655487060547 154.0500030517578 233.99554443359375 156.52999877929688 234.1888885498047 C 156.75 233.9022216796875 156.93333435058594 233.53555297851562 157.0800018310547 233.08888244628906 L 157.5800018310547 233.2288818359375 M 150.13999938964844 242.25888061523438 C 150.86000061035156 242.3655548095703 151.7133331298828 242.41888427734375 152.6999969482422 242.41888427734375 C 153.67999267578125 242.41888427734375 154.5 242.3655548095703 155.16000366210938 242.25888061523438 C 155.16000366210938 239.42555236816406 155.1199951171875 237.11221313476562 155.0399932861328 235.31887817382812 L 154.97000122070312 235.24888610839844 C 154.1366729736328 235.16888427734375 153.10333251953125 235.12887573242188 151.8699951171875 235.12887573242188 L 150.13999938964844 242.25888061523438 ZM 172.6753692626953 242.37887573242188 C 172.6753692626953 239.63888549804688 172.55535888671875 237.63221740722656 172.31536865234375 236.35888671875 C 172.0753631591797 235.0922088623047 171.6186981201172 234.33888244628906 170.94537353515625 234.098876953125 L 171.0453643798828 233.75888061523438 C 171.5386962890625 233.82554626464844 172.34536743164062 233.85888671875 173.46536254882812 233.85888671875 C 174.5853729248047 233.85888671875 175.6186981201172 233.79222106933594 176.56536865234375 233.65887451171875 L 176.63536071777344 234.21888732910156 C 175.5020294189453 234.4855499267578 174.7120361328125 234.6455535888672 174.26536560058594 234.69888305664062 C 174.05203247070312 236.2655487060547 173.94537353515625 238.3522186279297 173.94537353515625 240.95887756347656 L 173.94537353515625 242.37887573242188 C 173.94537353515625 245.3655548095703 174.05203247070312 247.45220947265625 174.26536560058594 248.63888549804688 C 175.07870483398438 248.73220825195312 175.84536743164062 248.87554931640625 176.56536865234375 249.06887817382812 L 176.46536254882812 249.66888427734375 C 175.6186981201172 249.54222106933594 174.76870727539062 249.4788818359375 173.9153594970703 249.4788818359375 C 173.05535888671875 249.4788818359375 172.36203002929688 249.50221252441406 171.8353729248047 249.54888916015625 C 171.8353729248047 249.022216796875 171.31536865234375 247.84555053710938 170.27536010742188 246.0188751220703 C 169.23536682128906 244.19888305664062 167.34869384765625 241.1522216796875 164.61537170410156 236.87887573242188 L 164.51536560058594 236.9288787841797 L 164.51536560058594 240.95887756347656 C 164.51536560058594 244.87887573242188 164.81202697753906 247.4388885498047 165.40536499023438 248.63888549804688 C 166.28536987304688 248.71888732910156 167.15870666503906 248.87220764160156 168.02536010742188 249.098876953125 L 167.97537231445312 249.66888427734375 C 166.7886962890625 249.54222106933594 165.50537109375 249.4788818359375 164.1253662109375 249.4788818359375 C 162.7386932373047 249.4788818359375 161.62203979492188 249.54222106933594 160.77536010742188 249.66888427734375 L 160.6753692626953 249.06887817382812 C 161.39537048339844 248.848876953125 162.1653594970703 248.68222045898438 162.98536682128906 248.56887817382812 C 163.15870666503906 247.25555419921875 163.245361328125 245.1922149658203 163.245361328125 242.37887573242188 L 163.245361328125 240.95887756347656 C 163.245361328125 238.70555114746094 163.14869689941406 236.7788848876953 162.9553680419922 235.1788787841797 C 161.06869506835938 235.1788787841797 159.86203002929688 235.43222045898438 159.3353729248047 235.9388885498047 C 159.22203063964844 236.16554260253906 159.1653594970703 236.5188751220703 159.1653594970703 236.99888610839844 C 159.1653594970703 237.4788818359375 159.245361328125 237.8055419921875 159.40536499023438 237.9788818359375 L 159.38536071777344 238.1488800048828 C 158.98536682128906 238.38888549804688 158.5853729248047 238.72555541992188 158.18536376953125 239.15887451171875 C 157.99203491210938 239.1455535888672 157.8353729248047 239.0655517578125 157.71536254882812 238.91888427734375 C 157.59536743164062 238.772216796875 157.53536987304688 238.6055450439453 157.53536987304688 238.41888427734375 C 157.53536987304688 237.63221740722656 158.00537109375 236.69554138183594 158.94537353515625 235.60888671875 C 159.89202880859375 234.522216796875 160.77203369140625 233.83221435546875 161.5853729248047 233.53887939453125 C 161.77870178222656 233.5588836669922 162.31869506835938 233.6155548095703 163.2053680419922 233.70887756347656 C 164.09869384765625 233.8088836669922 164.83203125 233.85888671875 165.40536499023438 233.85888671875 C 165.97869873046875 233.85888671875 166.51536560058594 233.8088836669922 167.01536560058594 233.70887756347656 L 167.10536193847656 234.3088836669922 C 166.4520263671875 234.58221435546875 166.1253662109375 234.84555053710938 166.1253662109375 235.098876953125 C 166.2053680419922 235.53221130371094 166.6620330810547 236.4422149658203 167.495361328125 237.82888793945312 C 168.32870483398438 239.20887756347656 170.02536010742188 241.8922119140625 172.5853729248047 245.87887573242188 L 172.6753692626953 245.82888793945312 L 172.6753692626953 242.37887573242188 ZM 177.32862854003906 249.1888885498047 C 177.32862854003906 247.78221130371094 177.63864135742188 246.5655517578125 178.25863647460938 245.53887939453125 C 178.87196350097656 244.5188751220703 179.5153045654297 244.00888061523438 180.18862915039062 244.00888061523438 C 180.36196899414062 244.00888061523438 180.53863525390625 244.0655517578125 180.7186279296875 244.1788787841797 L 180.78863525390625 244.33888244628906 C 180.58197021484375 244.73887634277344 180.45530700683594 245.24554443359375 180.40863037109375 245.85888671875 L 180.25863647460938 245.94888305664062 C 180.19863891601562 245.91554260253906 180.07862854003906 245.8988800048828 179.8986358642578 245.8988800048828 C 179.7252960205078 245.8988800048828 179.46530151367188 245.99554443359375 179.11863708496094 246.1888885498047 C 178.7786407470703 246.38221740722656 178.511962890625 246.57554626464844 178.31863403320312 246.7688751220703 C 178.20530700683594 246.98887634277344 178.1486358642578 247.24554443359375 178.1486358642578 247.53887939453125 C 178.1486358642578 248.28555297851562 178.65530395507812 248.9288787841797 179.66864013671875 249.46888732910156 C 180.68862915039062 250.00221252441406 181.66864013671875 250.2688751220703 182.60862731933594 250.2688751220703 C 184.58197021484375 250.2688751220703 185.56863403320312 249.1488800048828 185.56863403320312 246.90887451171875 C 185.56863403320312 246.0622100830078 184.75863647460938 244.99888610839844 183.13864135742188 243.71888732910156 C 182.46530151367188 243.17221069335938 181.79530334472656 242.62887573242188 181.12863159179688 242.08888244628906 C 179.50863647460938 240.8088836669922 178.69863891601562 239.69554138183594 178.69863891601562 238.74888610839844 C 178.69863891601562 237.62887573242188 179.20196533203125 236.58554077148438 180.20863342285156 235.61888122558594 C 181.2219696044922 234.6522216796875 182.36863708496094 233.94554138183594 183.6486358642578 233.49888610839844 C 185.02197265625 233.49888610839844 186.32530212402344 233.63221740722656 187.5586395263672 233.8988800048828 L 187.5586395263672 234.37887573242188 C 186.7252960205078 235.1522216796875 186.261962890625 236.33888244628906 186.16864013671875 237.9388885498047 L 185.56863403320312 237.9388885498047 C 185.56863403320312 237.08554077148438 185.5286407470703 236.33888244628906 185.44863891601562 235.69888305664062 C 184.7552947998047 235.37887573242188 184.0052947998047 235.21888732910156 183.19863891601562 235.21888732910156 C 182.3919677734375 235.21888732910156 181.70863342285156 235.3922119140625 181.1486358642578 235.73887634277344 C 180.58863830566406 236.08554077148438 180.3086395263672 236.522216796875 180.3086395263672 237.04888916015625 C 180.3086395263672 237.57554626464844 180.54530334472656 238.1055450439453 181.0186309814453 238.63888549804688 C 181.49197387695312 239.1788787841797 182.0619659423828 239.69888305664062 182.7286376953125 240.19888305664062 C 183.40196228027344 240.70555114746094 184.07196044921875 241.21888732910156 184.73863220214844 241.73887634277344 C 185.3986358642578 242.25888061523438 185.96530151367188 242.81887817382812 186.43862915039062 243.41888427734375 C 186.91197204589844 244.0188751220703 187.1486358642578 244.598876953125 187.1486358642578 245.15887451171875 C 187.1486358642578 246.75888061523438 186.70863342285156 248.18222045898438 185.82862854003906 249.4288787841797 C 184.94863891601562 250.67555236816406 183.74862670898438 251.61221313476562 182.2286376953125 252.23887634277344 C 180.2286376953125 252.03221130371094 178.62863159179688 251.4722137451172 177.4286346435547 250.5588836669922 C 177.36196899414062 250.11221313476562 177.32862854003906 249.65554809570312 177.32862854003906 249.1888885498047 ZM 197.1781463623047 249.57888793945312 C 196.41148376464844 249.51222229003906 195.6048126220703 249.4788818359375 194.75814819335938 249.4788818359375 C 193.91148376464844 249.4788818359375 193.23814392089844 249.51222229003906 192.73814392089844 249.57888793945312 L 192.6481475830078 249.23887634277344 C 192.83480834960938 249.17221069335938 193.0181427001953 249.0722198486328 193.19815063476562 248.9388885498047 C 193.37149047851562 248.8055419921875 193.45814514160156 248.65887451171875 193.45814514160156 248.49888610839844 C 193.45814514160156 247.32554626464844 192.3948211669922 243.41888427734375 190.2681427001953 236.7788848876953 C 190.07481384277344 236.17221069335938 189.88148498535156 235.63888549804688 189.6881561279297 235.1788787841797 C 187.8214874267578 235.1788787841797 186.62147521972656 235.43222045898438 186.08815002441406 235.9388885498047 C 185.98147583007812 236.16554260253906 185.9281463623047 236.5188751220703 185.9281463623047 236.99888610839844 C 185.9281463623047 237.4788818359375 186.00814819335938 237.8055419921875 186.16815185546875 237.9788818359375 L 186.13815307617188 238.1488800048828 C 185.73814392089844 238.38888549804688 185.33815002441406 238.72555541992188 184.9381561279297 239.15887451171875 C 184.74481201171875 239.1455535888672 184.58815002441406 239.0655517578125 184.46815490722656 238.91888427734375 C 184.34814453125 238.772216796875 184.28814697265625 238.6055450439453 184.28814697265625 238.41888427734375 C 184.28814697265625 237.63221740722656 184.76148986816406 236.69554138183594 185.70814514160156 235.60888671875 C 186.65481567382812 234.522216796875 187.53482055664062 233.83221435546875 188.34814453125 233.53887939453125 C 188.47482299804688 233.53887939453125 189.05148315429688 233.5922088623047 190.07815551757812 233.69888305664062 C 191.09814453125 233.8055419921875 191.91481018066406 233.85888671875 192.5281524658203 233.85888671875 L 195.32815551757812 233.85888671875 C 198.78814697265625 233.85888671875 201.29481506347656 233.7788848876953 202.84814453125 233.61888122558594 L 202.9381561279297 234.21888732910156 C 202.23814392089844 234.4388885498047 201.4714813232422 234.62222290039062 200.63815307617188 234.7688751220703 C 200.71815490722656 235.32888793945312 200.75814819335938 235.83554077148438 200.75814819335938 236.28887939453125 C 200.75814819335938 236.74888610839844 200.69480895996094 237.3222198486328 200.56814575195312 238.00888061523438 C 201.17481994628906 240.7288818359375 202.1348114013672 243.99888610839844 203.44815063476562 247.81887817382812 C 204.62814331054688 244.83221435546875 205.40814208984375 242.5655517578125 205.78814697265625 241.0188751220703 C 206.16148376464844 239.4722137451172 206.34814453125 238.1488800048828 206.34814453125 237.04888916015625 C 206.34814453125 235.54222106933594 205.94815063476562 234.5588836669922 205.1481475830078 234.098876953125 L 205.24815368652344 233.75888061523438 C 205.74148559570312 233.82554626464844 206.53482055664062 233.85888671875 207.62814331054688 233.85888671875 C 208.7281494140625 233.85888671875 209.74815368652344 233.79222106933594 210.68814086914062 233.65887451171875 L 210.78814697265625 234.25888061523438 C 210.06814575195312 234.4855499267578 209.30148315429688 234.65554809570312 208.48814392089844 234.7688751220703 C 208.56814575195312 235.32888793945312 208.608154296875 235.79222106933594 208.608154296875 236.15887451171875 C 208.608154296875 237.50555419921875 208.27481079101562 239.04888916015625 207.608154296875 240.78887939453125 C 206.9414825439453 242.53555297851562 205.73814392089844 245.15887451171875 203.99815368652344 248.65887451171875 C 204.271484375 248.8055419921875 204.63815307617188 248.9422149658203 205.09814453125 249.06887817382812 L 205.0281524658203 249.57888793945312 C 204.261474609375 249.51222229003906 203.45481872558594 249.4788818359375 202.608154296875 249.4788818359375 C 201.75482177734375 249.4788818359375 201.08148193359375 249.51222229003906 200.58815002441406 249.57888793945312 L 200.48814392089844 249.23887634277344 C 200.68148803710938 249.17221069335938 200.86814880371094 249.0722198486328 201.04815673828125 248.9388885498047 C 201.2214813232422 248.8055419921875 201.3081512451172 248.65887451171875 201.3081512451172 248.49888610839844 C 201.3081512451172 247.55221557617188 200.74148559570312 245.15887451171875 199.608154296875 241.31887817382812 L 199.50814819335938 241.31887817382812 C 198.75482177734375 243.25221252441406 197.6348114013672 245.69888305664062 196.1481475830078 248.65887451171875 C 196.42147827148438 248.8055419921875 196.78814697265625 248.9422149658203 197.24815368652344 249.06887817382812 L 197.1781463623047 249.57888793945312 M 195.59814453125 247.81887817382812 C 196.7781524658203 244.83221435546875 197.5581512451172 242.5655517578125 197.9381561279297 241.0188751220703 C 198.3114776611328 239.4722137451172 198.49815368652344 238.1522216796875 198.49815368652344 237.0588836669922 C 198.49815368652344 235.96554565429688 198.29815673828125 235.25221252441406 197.8981475830078 234.91888427734375 C 197.49815368652344 234.5922088623047 196.6781463623047 234.4288787841797 195.4381561279297 234.4288787841797 C 194.19815063476562 234.4288787841797 193.108154296875 234.5722198486328 192.16815185546875 234.85888671875 C 192.3081512451172 236.17221069335938 192.71815490722656 238.11888122558594 193.3981475830078 240.69888305664062 C 194.07815551757812 243.272216796875 194.8114776611328 245.6455535888672 195.59814453125 247.81887817382812 ZM 219.4311981201172 235.8988800048828 C 218.65785217285156 235.44554138183594 217.74452209472656 235.21888732910156 216.69119262695312 235.21888732910156 C 215.6378631591797 235.21888732910156 214.78118896484375 235.49221801757812 214.12118530273438 236.03887939453125 C 214.1078643798828 236.2655487060547 214.1011962890625 236.48220825195312 214.1011962890625 236.6888885498047 C 214.1011962890625 239.24888610839844 215.46786499023438 240.5288848876953 218.20118713378906 240.5288848876953 L 218.08119201660156 241.41888427734375 L 217.79119873046875 241.41888427734375 C 216.53118896484375 241.41888427734375 215.48785400390625 241.66888427734375 214.66119384765625 242.16888427734375 C 213.8411865234375 242.67555236816406 213.4311981201172 243.48887634277344 213.4311981201172 244.60888671875 C 213.4311981201172 245.7288818359375 213.8145294189453 246.59555053710938 214.58119201660156 247.20887756347656 C 215.3478546142578 247.82888793945312 216.25119018554688 248.13888549804688 217.29119873046875 248.13888549804688 C 218.33119201660156 248.13888549804688 219.14785766601562 247.94554138183594 219.74119567871094 247.5588836669922 C 219.85452270507812 247.33221435546875 219.91119384765625 246.9788818359375 219.91119384765625 246.49888610839844 C 219.91119384765625 246.0188751220703 219.83119201660156 245.6922149658203 219.6711883544922 245.5188751220703 L 219.69119262695312 245.348876953125 C 220.0911865234375 245.10888671875 220.49119567871094 244.772216796875 220.8911895751953 244.33888244628906 C 221.0845184326172 244.35888671875 221.24119567871094 244.4388885498047 221.36119079589844 244.57888793945312 C 221.48118591308594 244.72555541992188 221.54119873046875 244.8955535888672 221.54119873046875 245.08888244628906 C 221.54119873046875 246.0622100830078 221.08119201660156 247.00888061523438 220.16119384765625 247.9288787841797 C 219.24119567871094 248.848876953125 218.23785400390625 249.4855499267578 217.15118408203125 249.83888244628906 C 215.43785095214844 249.83888244628906 214.0111846923828 249.42221069335938 212.87118530273438 248.58888244628906 C 211.73785400390625 247.75555419921875 211.1711883544922 246.5722198486328 211.1711883544922 245.03887939453125 C 211.1711883544922 243.93222045898438 211.634521484375 243.01222229003906 212.56118774414062 242.2788848876953 C 213.48785400390625 241.54554748535156 214.54452514648438 241.1788787841797 215.73118591308594 241.1788787841797 L 215.73118591308594 241.07888793945312 C 214.64453125 241.01222229003906 213.73785400390625 240.70887756347656 213.0111846923828 240.16888427734375 C 212.27786254882812 239.62222290039062 211.91119384765625 238.86888122558594 211.91119384765625 237.90887451171875 C 212.49119567871094 236.88888549804688 213.2578582763672 235.96888732910156 214.21119689941406 235.1488800048828 C 215.15785217285156 234.33554077148438 216.1778564453125 233.78555297851562 217.2711944580078 233.49888610839844 C 218.40452575683594 233.49888610839844 219.52452087402344 233.6488800048828 220.63119506835938 233.94888305664062 C 220.884521484375 233.8222198486328 221.21119689941406 233.57554626464844 221.61119079589844 233.20887756347656 L 222.11119079589844 233.53887939453125 C 221.057861328125 234.81887817382812 220.41119384765625 236.348876953125 220.1711883544922 238.12887573242188 L 219.5511932373047 238.12887573242188 C 219.5511932373047 237.24888610839844 219.5111846923828 236.50555419921875 219.4311981201172 235.8988800048828 ZM 225.4226531982422 248.63888549804688 C 225.635986328125 247.1055450439453 225.74266052246094 244.9022216796875 225.74266052246094 242.0288848876953 C 225.74266052246094 239.15554809570312 225.66265869140625 236.8555450439453 225.50265502929688 235.12887573242188 C 223.7559814453125 235.16221618652344 222.635986328125 235.41888427734375 222.1426544189453 235.8988800048828 C 222.02932739257812 236.11888122558594 221.97265625 236.46888732910156 221.97265625 236.94888305664062 C 221.97265625 237.4288787841797 222.0526580810547 237.75888061523438 222.212646484375 237.9388885498047 L 222.18264770507812 238.098876953125 C 221.78265380859375 238.33888244628906 221.38265991210938 238.67555236816406 220.98265075683594 239.10888671875 C 220.79598999023438 239.09555053710938 220.6426544189453 239.0155487060547 220.5226593017578 238.86888122558594 C 220.40264892578125 238.7288818359375 220.3426513671875 238.5622100830078 220.3426513671875 238.36888122558594 C 220.3426513671875 237.62887573242188 220.7626495361328 236.75555419921875 221.6026611328125 235.74888610839844 C 222.44265747070312 234.74221801757812 223.24598693847656 234.04554748535156 224.0126495361328 233.65887451171875 C 225.37265014648438 233.79222106933594 227.33932495117188 233.85888671875 229.91265869140625 233.85888671875 C 231.54598999023438 233.85888671875 232.78598022460938 234.1022186279297 233.63265991210938 234.58888244628906 C 234.4793243408203 235.07554626464844 234.90264892578125 236.00555419921875 234.90264892578125 237.37887573242188 C 234.90264892578125 239.33221435546875 233.90264892578125 240.6922149658203 231.90264892578125 241.45887756347656 L 235.2626495361328 248.56887817382812 C 236.08265686035156 248.68222045898438 236.8526611328125 248.848876953125 237.57264709472656 249.06887817382812 L 237.47265625 249.66888427734375 C 236.53265380859375 249.54222106933594 235.5126495361328 249.4788818359375 234.41265869140625 249.4788818359375 C 233.31932067871094 249.4788818359375 232.5226593017578 249.51222229003906 232.0226593017578 249.57888793945312 L 231.93264770507812 249.23887634277344 C 232.20599365234375 248.96554565429688 232.3426513671875 248.50888061523438 232.3426513671875 247.86888122558594 C 232.3426513671875 246.58888244628906 231.58932495117188 244.54888916015625 230.08265686035156 241.74888610839844 C 229.68264770507812 241.66888427734375 229.2193145751953 241.62887573242188 228.69265747070312 241.62887573242188 L 228.7626495361328 241.098876953125 L 229.0526580810547 241.098876953125 C 230.20599365234375 241.098876953125 231.0926513671875 240.8155517578125 231.712646484375 240.24888610839844 C 232.33932495117188 239.68222045898438 232.65264892578125 238.85888671875 232.65264892578125 237.7788848876953 C 232.65264892578125 236.69888305664062 232.37265014648438 235.97555541992188 231.81265258789062 235.60888671875 C 231.25265502929688 235.24221801757812 230.37265014648438 235.0588836669922 229.1726531982422 235.0588836669922 C 228.61265563964844 235.0588836669922 228.14932250976562 235.08221435546875 227.78265380859375 235.12887573242188 C 227.64932250976562 236.54888916015625 227.58265686035156 238.84555053710938 227.58265686035156 242.0188751220703 C 227.58265686035156 245.185546875 227.6726531982422 247.36888122558594 227.8526611328125 248.56887817382812 C 228.66598510742188 248.68222045898438 229.43264770507812 248.848876953125 230.15264892578125 249.06887817382812 L 230.06265258789062 249.66888427734375 C 229.20932006835938 249.54222106933594 228.0926513671875 249.4788818359375 226.712646484375 249.4788818359375 C 225.32598876953125 249.4788818359375 224.0426483154297 249.54222106933594 222.86265563964844 249.66888427734375 L 222.78265380859375 249.098876953125 C 223.69598388671875 248.87220764160156 224.57598876953125 248.71888732910156 225.4226531982422 248.63888549804688 Z" transform="matrix(8.456419944763184, 0, 0, 8.456419944763184, -1215.4322509765625, -1953.4027099609375)" style="fill: rgb(0, 0, 0); white-space: pre; color: rgb(51, 51, 51);"/><g transform="matrix(14.538846969604494, 0, 0, 0.5180202126502991, -3965.26724398595, 64.57326130645947)"><g id="g-1" transform="matrix(1, 0, 0, 1, 0, 0)">
	<path class="st15" d="M326.6,214.6l-20.5-16.5c-1.5-1.2-2.8-0.6-2.8,1.3v7.6h-27c-2,0-3.6,1.3-3.6,2.9v13.8c0,1.6,1.6,2.9,3.6,2.9&#10;&#9;&#9;h27v7.5c0,2,1.3,2.6,2.8,1.3l20.5-16.5C328.1,217.8,328.1,215.8,326.6,214.6z" style="fill: rgb(0, 0, 0); opacity: 1;"/>
</g></g><g transform="matrix(-14.538469314575195, 0.10484497994184497, -0.0037355246022343636, -0.5180074572563171, 4764.806242342177, 91.88844685333441)"><g id="g-2" transform="matrix(1, 0, 0, 1, 0, 0)">
	<path class="st15" d="M326.6,214.6l-20.5-16.5c-1.5-1.2-2.8-0.6-2.8,1.3v7.6h-27c-2,0-3.6,1.3-3.6,2.9v13.8c0,1.6,1.6,2.9,3.6,2.9&#10;&#9;&#9;h27v7.5c0,2,1.3,2.6,2.8,1.3l20.5-16.5C328.1,217.8,328.1,215.8,326.6,214.6z" style="fill: rgb(0, 0, 0); opacity: 1;"/>
</g></g></svg>