<?xml version="1.0" encoding="UTF-8" standalone="no"?>
<!-- Created with Inkscape (http://www.inkscape.org/) -->

<svg
   xmlns:dc="http://purl.org/dc/elements/1.1/"
   xmlns:cc="http://creativecommons.org/ns#"
   xmlns:rdf="http://www.w3.org/1999/02/22-rdf-syntax-ns#"
   xmlns:svg="http://www.w3.org/2000/svg"
   xmlns="http://www.w3.org/2000/svg"
   xmlns:sodipodi="http://sodipodi.sourceforge.net/DTD/sodipodi-0.dtd"
   xmlns:inkscape="http://www.inkscape.org/namespaces/inkscape"
   width="45.064434mm"
   height="21.6798mm"
   viewBox="0 0 45.064434 21.6798"
   version="1.1"
   id="svg8"
   inkscape:version="0.92.3 (2405546, 2018-03-11)"
   sodipodi:docname="answer.svg">
  <defs
     id="defs2" />
  <sodipodi:namedview
     id="base"
     pagecolor="#ffffff"
     bordercolor="#666666"
     borderopacity="1.0"
     inkscape:pageopacity="0.0"
     inkscape:pageshadow="2"
     inkscape:zoom="4"
     inkscape:cx="75.660837"
     inkscape:cy="56.954819"
     inkscape:document-units="mm"
     inkscape:current-layer="layer1"
     showgrid="false"
     showguides="true"
     inkscape:snap-page="false"
     inkscape:snap-text-baseline="false"
     inkscape:measure-start="0,0"
     inkscape:measure-end="0,0"
     inkscape:guide-bbox="true"
     inkscape:window-width="1916"
     inkscape:window-height="1041"
     inkscape:window-x="1920"
     inkscape:window-y="37"
     inkscape:window-maximized="0">
    <sodipodi:guide
       position="38.239525,2.2458486"
       orientation="0,1"
       id="guide4698"
       inkscape:locked="false" />
    <sodipodi:guide
       position="38.239525,2.2458486"
       orientation="1,0"
       id="guide4705"
       inkscape:locked="false" />
    <sodipodi:guide
       position="39.239462,2.2458486"
       orientation="1,0"
       id="guide4707"
       inkscape:locked="false" />
    <sodipodi:guide
       position="3.5439679,21.323759"
       orientation="1,0"
       id="guide4728"
       inkscape:locked="false" />
    <sodipodi:guide
       position="4.543908,21.323759"
       orientation="1,0"
       id="guide4730"
       inkscape:locked="false" />
    <sodipodi:guide
       position="33.257917,15.104449"
       orientation="0,1"
       inkscape:locked="false"
       id="guide4769" />
    <sodipodi:guide
       position="9.315195,16.626839"
       orientation="0,1"
       id="guide4810"
       inkscape:locked="false" />
    <sodipodi:guide
       position="37.35069,6.4145488"
       orientation="0,1"
       id="guide4812"
       inkscape:locked="false" />
    <sodipodi:guide
       position="6.3587852,21.679801"
       orientation="1,0"
       id="guide917"
       inkscape:locked="false" />
    <sodipodi:guide
       position="5.2591107,21.679801"
       orientation="1,0"
       id="guide919"
       inkscape:locked="false" />
  </sodipodi:namedview>
  <metadata
     id="metadata5">
    <rdf:RDF>
      <cc:Work
         rdf:about="">
        <dc:format>image/svg+xml</dc:format>
        <dc:type
           rdf:resource="http://purl.org/dc/dcmitype/StillImage" />
        <dc:title />
      </cc:Work>
    </rdf:RDF>
  </metadata>
  <g
     inkscape:label="Layer 1"
     inkscape:groupmode="layer"
     id="layer1"
     transform="translate(-59.767927,-86.240729)">
    <path
       inkscape:connector-curvature="0"
       id="path4750"
       style="font-style:normal;font-variant:normal;font-weight:normal;font-stretch:normal;font-size:12.70000076px;line-height:1.25;font-family:Dyuthi;-inkscape-font-specification:Dyuthi;letter-spacing:0px;word-spacing:0px;fill:#e6e6e6;fill-opacity:1;stroke:none;stroke-width:0.26458332"
       d="m 64.195314,96.011041 1.010791,-2.784326 1.00459,2.784326 z m 2.437061,-3.38584 q -0.161231,-0.446484 -0.558106,-0.725537 -0.403076,-0.279053 -0.806152,-0.279053 h -0.173633 q -0.409277,0 -0.806152,0.279053 -0.396875,0.279053 -0.558106,0.750342 l -1.878955,5.457031 q -0.155029,0.446485 0.124024,0.837159 0.272851,0.384472 0.737939,0.384472 h 0.136426 q 0.353467,0 0.620117,-0.186035 0.260449,-0.173633 0.31626,-0.471289 l 0.297656,-1.519287 h 2.350244 l 0.322461,1.53789 q 0.04961,0.272852 0.31626,0.452686 0.248047,0.186035 0.539502,0.186035 h 0.136426 q 0.458887,0 0.750342,-0.396875 0.272851,-0.384472 0.111621,-0.824756 z" />
    <path
       inkscape:connector-curvature="0"
       id="path4752"
       style="font-style:normal;font-variant:normal;font-weight:normal;font-stretch:normal;font-size:medium;line-height:1.25;font-family:Dyuthi;-inkscape-font-specification:Dyuthi;letter-spacing:0px;word-spacing:0px;fill:#e6e6e6;fill-opacity:1;stroke:none;stroke-width:0.26458332"
       d="m 71.188169,95.019887 2.299601,3.751709 q 0.356568,0.583944 1.018026,0.583944 h 0.03101 q 0.552938,0 0.847493,-0.361735 0.346233,-0.54777 0.346233,-0.847494 v -4.526855 q 0,-0.320394 -0.217041,-0.537435 -0.222209,-0.217041 -0.630453,-0.217041 h -0.02067 q -0.299723,0 -0.527099,0.217041 -0.232544,0.232544 -0.227376,0.537435 l 0.09819,3.591512 -2.71818,-4.025594 Q 71.270852,92.86498 70.867775,92.86498 h -0.454752 q -0.320394,0 -0.5271,0.217041 -0.227376,0.227377 -0.227376,0.537435 v 4.971273 q 0,0.320394 0.227376,0.537435 0.222209,0.227376 0.620117,0.227376 h 0.02067 q 0.320394,0 0.537435,-0.227376 0.222208,-0.24288 0.217041,-0.537435 z" />
    <path
       inkscape:connector-curvature="0"
       id="path4754"
       style="font-style:normal;font-variant:normal;font-weight:normal;font-stretch:normal;font-size:medium;line-height:1.25;font-family:Dyuthi;-inkscape-font-specification:Dyuthi;letter-spacing:0px;word-spacing:0px;fill:#e6e6e6;fill-opacity:1;stroke:none;stroke-width:0.26458332"
       d="m 79.218687,95.510814 q -0.661459,-0.253215 -0.89917,-0.403077 -0.273885,-0.180867 -0.273885,-0.465088 0,-0.242879 0.206705,-0.413411 0.248047,-0.186035 0.692465,-0.180867 0.346232,0 0.780314,0.124023 0.248047,0.06718 0.454752,-0.05684 0.217041,-0.129191 0.289388,-0.366903 l 0.01034,-0.01034 q 0.05684,-0.242879 -0.07235,-0.480591 -0.134359,-0.227376 -0.377238,-0.28422 -0.671794,-0.165365 -1.069703,-0.165365 -1.100707,-0.01033 -1.782836,0.537435 -0.676962,0.5271 -0.676962,1.410767 0,1.302246 1.793173,1.943033 0.583943,0.206706 0.821655,0.397909 0.232544,0.186035 0.232544,0.45992 0,0.315226 -0.26355,0.480591 -0.26355,0.191203 -0.718302,0.191203 -0.377238,0 -0.997356,-0.196371 -0.263549,-0.08785 -0.501261,0.04651 -0.232544,0.129191 -0.299723,0.392741 l -0.01034,0.02067 q -0.05684,0.242879 0.07752,0.470255 0.129191,0.227376 0.366903,0.28422 0.764811,0.227377 1.27124,0.227377 1.33842,0 2.036051,-0.640788 0.583944,-0.54777 0.583944,-1.379761 0,-0.676961 -0.413411,-1.147216 -0.397909,-0.475424 -1.260905,-0.795817 z" />
    <path
       inkscape:connector-curvature="0"
       id="path4756"
       style="font-style:normal;font-variant:normal;font-weight:normal;font-stretch:normal;font-size:medium;line-height:1.25;font-family:Dyuthi;-inkscape-font-specification:Dyuthi;letter-spacing:0px;word-spacing:0px;fill:#e6e6e6;fill-opacity:1;stroke:none;stroke-width:0.26458332"
       d="m 90.220599,92.797801 q -0.258382,0 -0.439249,0.144694 -0.227377,0.1757 -0.284221,0.387573 l -0.614949,2.335775 q -0.594279,2.139404 -0.620118,2.263427 h -0.031 q -0.403077,-1.979207 -1.028361,-4.470011 -0.07235,-0.294555 -0.310059,-0.480591 -0.227376,-0.180867 -0.5271,-0.180867 h -0.02067 q -0.310059,0 -0.5271,0.180867 -0.237711,0.196371 -0.299723,0.480591 -0.687297,2.816366 -1.028361,4.470011 h -0.03101 q 0.0052,-0.05168 -0.620117,-2.263427 l -0.625285,-2.335775 q -0.06718,-0.258382 -0.26355,-0.387573 -0.201538,-0.144694 -0.449585,-0.144694 h -0.113688 q -0.397908,0 -0.625284,0.325561 -0.217042,0.33073 -0.09302,0.692465 l 1.658813,4.780069 q 0.124024,0.346233 0.454753,0.583944 0.320394,0.227376 0.697632,0.227376 h 0.02067 q 0.413412,0 0.733806,-0.263549 0.335896,-0.279053 0.434082,-0.661459 l 0.697631,-2.744018 0.676962,2.744018 q 0.103353,0.403076 0.434082,0.661459 0.335897,0.263549 0.754476,0.263549 h 0.02067 q 0.397909,0 0.697632,-0.227376 0.310059,-0.227376 0.434082,-0.583944 l 1.658813,-4.780069 q 0.139527,-0.392741 -0.08268,-0.697632 -0.232544,-0.320394 -0.625285,-0.320394 z" />
    <path
       inkscape:connector-curvature="0"
       id="path4758"
       style="font-style:normal;font-variant:normal;font-weight:normal;font-stretch:normal;font-size:medium;line-height:1.25;font-family:Dyuthi;-inkscape-font-specification:Dyuthi;letter-spacing:0px;word-spacing:0px;fill:#e6e6e6;fill-opacity:1;stroke:none;stroke-width:0.26458332"
       d="m 93.083474,98.19282 v -1.632975 l 1.875854,0.04651 q 0.232544,0.0052 0.413412,-0.170532 0.170532,-0.165365 0.170532,-0.413412 v -0.02067 q 0.0052,-0.24288 -0.165365,-0.403077 -0.186035,-0.175699 -0.418579,-0.170532 l -1.875854,0.04651 v -1.467611 l 1.989542,0.09302 q 0.201538,0.01033 0.377238,-0.129191 0.05684,-0.04651 0.201538,-0.330729 l 0.0052,-0.02067 q 0.139526,-0.28422 -0.113688,-0.594279 -0.165365,-0.206706 -0.45992,-0.206706 h -2.630331 q -0.392741,0 -0.651123,0.26355 -0.273885,0.284221 -0.273885,0.661459 v 4.671549 q 0,0.377238 0.273885,0.651123 0.273885,0.273885 0.651123,0.273885 h 2.769857 q 0.248047,0.0052 0.418579,-0.170532 0.170532,-0.165365 0.170532,-0.413412 v -0.02067 q 0,-0.258382 -0.170532,-0.413412 -0.191203,-0.170532 -0.418579,-0.170532 z" />
    <path
       inkscape:connector-curvature="0"
       id="path4760"
       style="font-style:normal;font-variant:normal;font-weight:normal;font-stretch:normal;font-size:12.70000076px;line-height:1.25;font-family:Dyuthi;-inkscape-font-specification:Dyuthi;letter-spacing:0px;word-spacing:0px;fill:#e6e6e6;fill-opacity:1;stroke:none;stroke-width:0.26458332"
       d="m 98.562209,93.635703 h 0.892969 q 0.440283,0 0.781352,0.359668 0.33486,0.341064 0.33486,1.277441 0,0.942578 -0.33486,1.283643 -0.316265,0.334863 -0.781352,0.347266 h -0.892969 z m 2.827731,3.689697 q 0.26665,-0.229443 0.44029,-0.502295 0.47749,-0.74414 0.47749,-1.494482 0,-0.923975 -0.61392,-1.63711 -0.60151,-0.706933 -1.50688,-0.837158 l -0.0558,-0.0124 q -0.0992,-0.02481 -0.334868,-0.02481 h -2.139404 q -0.384473,0 -0.657325,0.272852 -0.272851,0.272851 -0.272851,0.644922 v 6.021338 q 0,0.359723 0.272851,0.632613 0.26045,0.26045 0.63252,0.26045 h 0.0248 q 0.353466,0 0.632519,-0.26045 0.272852,-0.24807 0.272852,-0.632613 v -1.909961 l 1.364258,-0.02481 0.582918,1.730127 q 0.29145,0.874457 1.01699,1.060487 0.34726,0.0992 0.66352,-0.0868 h 0.0124 q 0.27285,-0.006 0.40927,-0.545789 0.10542,-0.42168 -0.093,-0.756543 z" />
    <path
       style="color:#000000;font-style:normal;font-variant:normal;font-weight:normal;font-stretch:normal;font-size:medium;line-height:normal;font-family:sans-serif;font-variant-ligatures:normal;font-variant-position:normal;font-variant-caps:normal;font-variant-numeric:normal;font-variant-alternates:normal;font-feature-settings:normal;text-indent:0;text-align:start;text-decoration:none;text-decoration-line:none;text-decoration-style:solid;text-decoration-color:#000000;letter-spacing:normal;word-spacing:normal;text-transform:none;writing-mode:lr-tb;direction:ltr;text-orientation:mixed;dominant-baseline:auto;baseline-shift:baseline;text-anchor:start;white-space:normal;shape-padding:0;clip-rule:nonzero;display:inline;overflow:visible;visibility:visible;opacity:1;isolation:auto;mix-blend-mode:normal;color-interpolation:sRGB;color-interpolation-filters:linearRGB;solid-color:#000000;solid-opacity:1;vector-effect:none;fill:#e6e6e6;fill-opacity:1;fill-rule:nonzero;stroke:none;stroke-width:4.15748024;stroke-linecap:butt;stroke-linejoin:miter;stroke-miterlimit:4;stroke-dasharray:none;stroke-dashoffset:0;stroke-opacity:1;color-rendering:auto;image-rendering:auto;shape-rendering:auto;text-rendering:auto;enable-background:accumulate"
       d="m 20.603516,6.6425781 c -0.403052,0 -0.726563,0.3235112 -0.726563,0.7265625 v 0.7910156 5.7890628 c 0,6.08132 4.96172,11.042969 11.042969,11.042969 h 5.214844 11.6875 12.166015 99.291019 c 3.85001,0 6.88672,3.034825 6.88672,6.884765 v 11.552735 0.363281 12.90625 c 0,3.850038 -3.03667,6.886719 -6.88672,6.886719 h -1.67188 v 0.002 h -1.0957 c -0.24643,0 -0.44336,0.198433 -0.44336,0.445312 v 3.265625 c 0,0.246425 0.19652,0.44336 0.44336,0.44336 h 1.0957 1.67188 c 6.08133,0 11.04297,-4.961611 11.04297,-11.042969 V 43.792969 43.429688 31.876953 c 0,-6.081267 -4.96164,-11.042969 -11.04297,-11.042969 H 59.988281 47.822266 36.134766 30.919922 c -3.84991,0 -6.886719,-3.034776 -6.886719,-6.884765 V 8.1601562 7.3691406 c 0,-0.4030513 -0.323511,-0.7265625 -0.726562,-0.7265625 z"
       transform="matrix(0.26458333,0,0,0.26458333,59.767927,84.483214)"
       id="path4808"
       inkscape:connector-curvature="0" />
    <path
       style="color:#000000;font-style:normal;font-variant:normal;font-weight:normal;font-stretch:normal;font-size:medium;line-height:normal;font-family:sans-serif;font-variant-ligatures:normal;font-variant-position:normal;font-variant-caps:normal;font-variant-numeric:normal;font-variant-alternates:normal;font-feature-settings:normal;text-indent:0;text-align:start;text-decoration:none;text-decoration-line:none;text-decoration-style:solid;text-decoration-color:#000000;letter-spacing:normal;word-spacing:normal;text-transform:none;writing-mode:lr-tb;direction:ltr;text-orientation:mixed;dominant-baseline:auto;baseline-shift:baseline;text-anchor:start;white-space:normal;shape-padding:0;clip-rule:nonzero;display:inline;overflow:visible;visibility:visible;opacity:1;isolation:auto;mix-blend-mode:normal;color-interpolation:sRGB;color-interpolation-filters:linearRGB;solid-color:#000000;solid-opacity:1;vector-effect:none;fill:#e6e6e6;fill-opacity:1;fill-rule:nonzero;stroke:none;stroke-width:1.10000002;stroke-linecap:butt;stroke-linejoin:miter;stroke-miterlimit:4;stroke-dasharray:none;stroke-dashoffset:0;stroke-opacity:1;color-rendering:auto;image-rendering:auto;shape-rendering:auto;text-rendering:auto;enable-background:accumulate"
       d="m 62.689713,89.995022 c -1.609008,0 -2.921786,1.312777 -2.921786,2.921785 v 3.091802 0.234093 3.243215 c 0,1.608993 1.312778,2.922293 2.921786,2.922293 h 1.168921 2.425173 29.452983 1.379762 c 1.01863,0 1.82159,0.80296 1.821593,1.82159 v 1.94975 H 98.36402 l 1.124479,1.74098 1.123961,-1.74098 h -0.57412 v -1.94975 c 0,-1.609 -1.312783,-2.92178 -2.921788,-2.92178 H 95.73679 66.283807 63.858634 62.689713 c -1.018635,0 -1.821596,-0.80348 -1.821596,-1.822103 v -3.243215 -0.234093 -3.091802 c 0,-1.018635 0.802963,-1.822111 1.821596,-1.822111 h 1.105357 v -5.16e-4 h 0.156581 c 0.06524,0 0.117821,-0.05258 0.117821,-0.117821 v -0.864032 c 0,-0.06524 -0.05259,-0.117305 -0.117821,-0.117305 H 63.79507 Z"
       id="path4803"
       inkscape:connector-curvature="0" />
  </g>
</svg>
