<?xml version="1.0" encoding="UTF-8" standalone="no"?>
<svg
   xmlns:dc="http://purl.org/dc/elements/1.1/"
   xmlns:cc="http://creativecommons.org/ns#"
   xmlns:rdf="http://www.w3.org/1999/02/22-rdf-syntax-ns#"
   xmlns:svg="http://www.w3.org/2000/svg"
   xmlns="http://www.w3.org/2000/svg"
   xmlns:sodipodi="http://sodipodi.sourceforge.net/DTD/sodipodi-0.dtd"
   xmlns:inkscape="http://www.inkscape.org/namespaces/inkscape"
   inkscape:export-ydpi="1293.8"
   inkscape:export-xdpi="1293.8"
   inkscape:export-filename="/Users/zer0/bitmap.png"
   sodipodi:docname="bogonet.svg"
   inkscape:version="1.0 (4035a4f, 2020-05-01)"
   id="svg1142"
   version="1.1"
   viewBox="0 0 182.58443 50.543892"
   height="50.543892mm"
   width="182.58443mm">
  <defs
     id="defs1136">
    <clipPath
       clipPathUnits="userSpaceOnUse"
       id="clipPath1164">
      <path
         d="M 0,595.28 H 841.89 V 0 H 0 Z"
         id="path1162" />
    </clipPath>
  </defs>
  <sodipodi:namedview
     inkscape:window-maximized="1"
     inkscape:window-y="23"
     inkscape:window-x="36"
     inkscape:window-height="1035"
     inkscape:window-width="1884"
     showgrid="false"
     inkscape:document-rotation="0"
     inkscape:current-layer="g1160"
     inkscape:document-units="mm"
     inkscape:cy="404.19862"
     inkscape:cx="668.48338"
     inkscape:zoom="0.35"
     inkscape:pageshadow="2"
     inkscape:pageopacity="0.0"
     borderopacity="1.0"
     bordercolor="#666666"
     pagecolor="#ffffff"
     id="base" />
  <metadata
     id="metadata1139">
    <rdf:RDF>
      <cc:Work
         rdf:about="">
        <dc:format>image/svg+xml</dc:format>
        <dc:type
           rdf:resource="http://purl.org/dc/dcmitype/StillImage" />
        <dc:title></dc:title>
      </cc:Work>
    </rdf:RDF>
  </metadata>
  <g
     transform="translate(71.036229,-41.22245)"
     id="layer1"
     inkscape:groupmode="layer"
     inkscape:label="Layer 1">
    <g
       id="g1152"
       inkscape:label="로고"
       transform="matrix(0.35277777,0,0,-0.35277777,-131.06694,196.54282)">
      <g
         id="g1158">
        <g
           id="g1160"
           clip-path="url(#clipPath1164)">
          <g
             inkscape:export-ydpi="267.09836"
             inkscape:export-xdpi="267.09836"
             inkscape:export-filename="/Users/zer0/g1494.png"
             id="g1442"
             transform="translate(644.7018,397.9536)">
            <path
               d="m 0,0 c -3.741,3.741 -9.807,3.741 -13.549,0 -3.741,-3.741 -3.741,-9.807 0,-13.549 3.742,-3.741 9.808,-3.741 13.549,0 C 3.741,-9.807 3.741,-3.741 0,0"
               style="fill:#8ec31f;fill-opacity:1;fill-rule:nonzero;stroke:none"
               id="path1444" />
          </g>
          <g
             inkscape:export-ydpi="267.09836"
             inkscape:export-xdpi="267.09836"
             inkscape:export-filename="/Users/zer0/g1494.png"
             id="g1446"
             transform="translate(673.3227,356.4851)">
            <path
               d="m 0,0 c -2.453,-2.453 -6.429,-2.453 -8.882,0 -2.453,2.453 -2.453,6.429 0,8.882 2.453,2.453 6.429,2.453 8.882,0 C 2.453,6.429 2.453,2.453 0,0 m -44.635,25.454 c -5.095,5.094 -5.095,13.385 0,18.48 5.095,5.095 13.385,5.095 18.48,0 5.095,-5.095 5.095,-13.385 0,-18.48 -5.095,-5.095 -13.386,-5.095 -18.48,0 m 30.044,49.643 c 5.597,5.596 14.703,5.596 20.299,-10e-4 5.597,-5.596 5.597,-14.702 0,-20.299 -5.596,-5.596 -14.702,-5.596 -20.298,0 -5.597,5.597 -5.597,14.703 -10e-4,20.3 m 2.231,-59.083 -8.926,8.926 c 4.447,6.427 4.002,15.22 -1.324,21.176 l 5.184,5.184 c 7.375,-7.02 19.077,-6.926 26.318,0.314 7.351,7.352 7.351,19.313 0,26.665 -7.352,7.352 -19.314,7.352 -26.666,0.001 -6.464,-6.465 -7.239,-16.492 -2.334,-23.816 l -5.607,-5.607 c -6.68,4.569 -15.891,3.902 -21.818,-2.025 -6.693,-6.693 -6.693,-17.583 0,-24.276 6.441,-6.442 16.759,-6.665 23.493,-0.708 l 8.645,-8.645 c -4.408,-5.504 -4.068,-13.584 1.032,-18.684 5.471,-5.471 14.373,-5.47 19.844,10e-4 5.471,5.471 5.471,14.372 0,19.843 -4.847,4.846 -12.38,5.39 -17.841,1.651"
               style="fill:#8ec31f;fill-opacity:1;fill-rule:nonzero;stroke:none"
               id="path1448" />
          </g>
          <g
             inkscape:export-ydpi="267.09836"
             inkscape:export-xdpi="267.09836"
             inkscape:export-filename="/Users/zer0/g1494.png"
             id="g1450"
             transform="translate(674.8491,415.4643)">
            <path
               d="m 0,0 c 3.296,3.296 3.296,8.64 0,11.936 -3.296,3.296 -8.64,3.296 -11.936,0 C -15.232,8.64 -15.232,3.296 -11.936,0 -8.64,-3.296 -3.296,-3.296 0,0"
               style="fill:#8ec31f;fill-opacity:1;fill-rule:nonzero;stroke:none"
               id="path1452" />
          </g>
          <g
             inkscape:export-ydpi="267.09836"
             inkscape:export-xdpi="267.09836"
             inkscape:export-filename="/Users/zer0/g1494.png"
             id="g1454"
             transform="translate(642.5259,364.3403)">
            <path
               d="m 0,0 h -57.117 v -14.142 h 23.35 l 0.087,-51.935 h 12.674 l -0.087,51.935 H 0 Z"
               style="fill:#8ec31f;fill-opacity:1;fill-rule:nonzero;stroke:none"
               id="path1456" />
          </g>
          <g
             inkscape:export-ydpi="267.09836"
             inkscape:export-xdpi="267.09836"
             inkscape:export-filename="/Users/zer0/g1494.png"
             id="g1458"
             transform="translate(534.4017,324.3898)">
            <path
               d="M 0,0 H 44.298 V 13.996 H 0 V 25.787 H 44.211 V 39.975 H -2.316 c -0.018,-0.008 -0.033,-0.016 -0.052,-0.024 v 0.024 C -8.685,39.018 -13.596,33.009 -13.596,25.781 v -37.533 c 0,-7.228 4.911,-13.236 11.228,-14.193 l 46.624,0.007 0.042,14.243 -44.346,-0.196"
               style="fill:#8ec31f;fill-opacity:1;fill-rule:nonzero;stroke:none"
               id="path1460" />
          </g>
          <g
             inkscape:export-ydpi="267.09836"
             inkscape:export-xdpi="267.09836"
             inkscape:export-filename="/Users/zer0/g1494.png"
             id="g1462"
             transform="translate(514.1362,351.5645)">
            <path
               d="M 0,0 C -0.867,7.201 -6.307,12.8 -12.852,12.8 H -46.838 C -53.383,12.8 -58.824,7.201 -59.69,0 l 0.006,-53.149 12.897,-0.048 -0.177,50.552 23.44,-0.054 h 10.677 V -53.097 H 0 V -0.059 C -0.007,-0.038 -0.015,-0.021 -0.021,0 Z"
               style="fill:#8ec31f;fill-opacity:1;fill-rule:nonzero;stroke:none"
               id="path1464" />
          </g>
          <g
             inkscape:export-ydpi="267.09836"
             inkscape:export-xdpi="267.09836"
             inkscape:export-filename="/Users/zer0/g1494.png"
             id="g1466"
             transform="translate(433.8256,320.795)">
            <path
               d="m 0,0 c 0,-5.311 -4.345,-9.656 -9.656,-9.656 h -18.159 c -5.311,0 -9.656,4.345 -9.656,9.656 v 20.942 c 0,5.311 4.345,9.656 9.656,9.656 H -9.656 C -4.345,30.598 0,26.253 0,20.942 Z m -2.142,43.811 h -33.187 c -7.943,0 -14.442,-6.499 -14.442,-14.442 V -8.427 c 0,-7.943 6.499,-14.442 14.442,-14.442 h 33.187 c 7.943,0 14.442,6.499 14.442,14.442 v 37.796 c 0,7.943 -6.499,14.442 -14.442,14.442"
               style="fill:#727272;fill-opacity:1;fill-rule:nonzero;stroke:none"
               id="path1468" />
          </g>
          <g
             inkscape:export-ydpi="267.09836"
             inkscape:export-xdpi="267.09836"
             inkscape:export-filename="/Users/zer0/g1494.png"
             id="g1470"
             transform="translate(406.0098,350.4707)">
            <path
               d="m 0,0 c -4.816,0 -8.734,-3.918 -8.734,-8.733 v -20.943 c 0,-4.815 3.918,-8.733 8.734,-8.733 h 18.159 c 4.817,0 8.734,3.918 8.734,8.733 V -8.733 C 26.893,-3.918 22.976,0 18.159,0 Z M 18.159,-40.253 H 0 c -5.832,0 -10.578,4.745 -10.578,10.577 v 20.943 c 0,5.832 4.746,10.577 10.578,10.577 h 18.159 c 5.832,0 10.578,-4.745 10.578,-10.577 v -20.943 c 0,-5.832 -4.746,-10.577 -10.578,-10.577 M -7.513,13.214 c -7.454,0 -13.52,-6.066 -13.52,-13.521 v -37.795 c 0,-7.455 6.066,-13.521 13.52,-13.521 h 33.186 c 7.455,0 13.521,6.066 13.521,13.521 v 37.795 c 0,7.455 -6.066,13.521 -13.521,13.521 z m 33.186,-66.68 H -7.513 c -8.471,0 -15.364,6.892 -15.364,15.364 v 37.795 c 0,8.472 6.893,15.364 15.364,15.364 h 33.186 c 8.473,0 15.365,-6.892 15.365,-15.364 v -37.795 c 0,-8.472 -6.892,-15.364 -15.365,-15.364"
               style="fill:#727272;fill-opacity:1;fill-rule:nonzero;stroke:none"
               id="path1472" />
          </g>
          <g
             inkscape:export-ydpi="267.09836"
             inkscape:export-xdpi="267.09836"
             inkscape:export-filename="/Users/zer0/g1494.png"
             id="g1474"
             transform="translate(292.1013,320.795)">
            <path
               d="m 0,0 c 0,-5.311 -4.345,-9.656 -9.656,-9.656 h -18.159 c -5.311,0 -9.656,4.345 -9.656,9.656 v 20.942 c 0,5.311 4.345,9.656 9.656,9.656 H -9.656 C -4.345,30.598 0,26.253 0,20.942 Z m -2.142,43.811 h -33.187 c -7.943,0 -14.442,-6.499 -14.442,-14.442 V -8.427 c 0,-7.943 6.499,-14.442 14.442,-14.442 h 33.187 c 7.943,0 14.442,6.499 14.442,14.442 v 37.796 c 0,7.943 -6.499,14.442 -14.442,14.442"
               style="fill:#727272;fill-opacity:1;fill-rule:nonzero;stroke:none"
               id="path1476" />
          </g>
          <g
             inkscape:export-ydpi="267.09836"
             inkscape:export-xdpi="267.09836"
             inkscape:export-filename="/Users/zer0/g1494.png"
             id="g1478"
             transform="translate(264.286,350.4707)">
            <path
               d="m 0,0 c -4.816,0 -8.734,-3.918 -8.734,-8.733 v -20.943 c 0,-4.815 3.918,-8.733 8.734,-8.733 h 18.159 c 4.817,0 8.734,3.918 8.734,8.733 V -8.733 C 26.893,-3.918 22.976,0 18.159,0 Z M 18.159,-40.253 H 0 c -5.832,0 -10.578,4.745 -10.578,10.577 v 20.943 c 0,5.832 4.746,10.577 10.578,10.577 h 18.159 c 5.832,0 10.578,-4.745 10.578,-10.577 v -20.943 c 0,-5.832 -4.746,-10.577 -10.578,-10.577 M -7.513,13.214 c -7.454,0 -13.52,-6.066 -13.52,-13.521 v -37.795 c 0,-7.455 6.066,-13.521 13.52,-13.521 h 33.186 c 7.454,0 13.519,6.066 13.519,13.521 v 37.795 c 0,7.455 -6.065,13.521 -13.519,13.521 z m 33.186,-66.68 H -7.513 c -8.471,0 -15.364,6.892 -15.364,15.364 v 37.795 c 0,8.472 6.893,15.364 15.364,15.364 h 33.186 c 8.471,0 15.363,-6.892 15.363,-15.364 v -37.795 c 0,-8.472 -6.892,-15.364 -15.363,-15.364"
               style="fill:#727272;fill-opacity:1;fill-rule:nonzero;stroke:none"
               id="path1480" />
          </g>
          <g
             inkscape:export-ydpi="267.09836"
             inkscape:export-xdpi="267.09836"
             inkscape:export-filename="/Users/zer0/g1494.png"
             id="g1482"
             transform="translate(338.8543,338.0646)">
            <path
               d="m 0,0 v -13.304 h 24.099 v -3.966 c 0,-5.31 -4.345,-9.655 -9.656,-9.655 H -3.716 c -5.311,0 -9.656,4.345 -9.656,9.655 V 3.672 c 0,5.311 4.345,9.656 9.656,9.656 h 18.159 c 0.083,0 0.16,-0.022 0.242,-0.024 H 36.337 C 35.719,20.688 29.493,26.541 21.956,26.541 H -11.23 c -7.943,0 -14.442,-6.499 -14.442,-14.442 v -37.795 c 0,-7.943 6.499,-14.442 14.442,-14.442 h 33.186 c 7.944,0 14.443,6.499 14.443,14.442 V -13.304 0 h -12.3 z"
               style="fill:#727272;fill-opacity:1;fill-rule:nonzero;stroke:none"
               id="path1484" />
          </g>
          <g
             inkscape:export-ydpi="267.09836"
             inkscape:export-xdpi="267.09836"
             inkscape:export-filename="/Users/zer0/g1494.png"
             id="g1486"
             transform="translate(327.6242,363.6842)">
            <path
               d="m 0,0 c -7.454,0 -13.52,-6.066 -13.52,-13.521 v -37.795 c 0,-7.455 6.066,-13.52 13.52,-13.52 h 33.186 c 7.456,0 13.522,6.065 13.522,13.52 v 24.775 H 12.151 v -11.46 H 36.25 v -4.889 c 0,-5.831 -4.746,-10.576 -10.577,-10.576 H 7.513 c -5.831,0 -10.577,4.745 -10.577,10.576 v 20.943 c 0,5.832 4.746,10.577 10.577,10.577 l 39.014,-0.024 C 45.49,-4.929 39.815,0 33.186,0 Z M 33.186,-66.68 H 0 c -8.471,0 -15.363,6.892 -15.363,15.364 v 37.795 c 0,8.473 6.892,15.365 15.363,15.365 h 33.186 c 7.917,0 14.638,-6.186 15.3,-14.083 l 0.085,-0.999 -41.058,0.024 c -4.816,0 -8.734,-3.917 -8.734,-8.733 V -42.89 c 0,-4.815 3.918,-8.733 8.734,-8.733 h 18.16 c 4.816,0 8.734,3.918 8.734,8.733 v 3.045 H 10.308 v 15.147 h 38.243 v -26.618 c 0,-8.472 -6.892,-15.364 -15.365,-15.364"
               style="fill:#727272;fill-opacity:1;fill-rule:nonzero;stroke:none"
               id="path1488" />
          </g>
          <g
             inkscape:export-ydpi="267.09836"
             inkscape:export-xdpi="267.09836"
             inkscape:export-filename="/Users/zer0/g1494.png"
             id="g1490"
             transform="translate(219.1415,313.2365)">
            <path
               d="m 0,0 c -0.65,-1.306 -1.536,-2.301 -2.656,-2.984 -1.121,-0.684 -2.36,-1.151 -3.716,-1.398 -1.357,-0.249 -2.891,-0.373 -4.602,-0.373 h -23.805 v 19.206 h 25.752 c 3.008,0 5.428,-0.825 7.257,-2.471 C 0.058,10.332 0.972,8.018 0.972,5.034 0.972,2.983 0.648,1.305 0,0 m -34.779,40.928 h 22.478 c 3.833,0 6.606,-0.653 8.318,-1.958 1.711,-1.306 2.566,-3.356 2.566,-6.153 0,-1.804 -0.252,-3.279 -0.753,-4.429 -0.5,-1.15 -1.179,-2.004 -2.034,-2.563 -0.855,-0.56 -1.756,-0.949 -2.699,-1.166 -0.945,-0.218 -1.977,-0.326 -3.099,-0.326 H -34.779 Z M 13.716,11.28 c -0.708,1.926 -1.622,3.527 -2.744,4.802 -1.12,1.273 -2.33,2.284 -3.628,3.03 -1.298,0.745 -2.654,1.335 -4.071,1.772 1.12,0.558 2.139,1.133 3.054,1.724 0.914,0.59 1.798,1.399 2.655,2.424 0.854,1.026 1.549,2.345 2.08,3.962 0.531,1.616 0.796,3.543 0.796,5.781 0,2.298 -0.281,4.428 -0.841,6.386 -0.562,1.957 -1.534,3.697 -2.92,5.221 -1.387,1.522 -3.261,2.734 -5.62,3.636 -2.36,0.9 -5.28,1.351 -8.761,1.351 h -41.77 v -66.566 h 41.327 c 4.012,0 7.435,0.636 10.267,1.911 2.832,1.274 5.057,2.905 6.681,4.895 1.622,1.988 2.787,4.086 3.495,6.293 0.707,2.205 1.062,4.366 1.062,6.48 0,2.671 -0.355,4.971 -1.062,6.898"
               style="fill:#727272;fill-opacity:1;fill-rule:nonzero;stroke:none"
               id="path1492" />
          </g>
          <g
             inkscape:export-ydpi="267.09836"
             inkscape:export-xdpi="267.09836"
             inkscape:export-filename="/Users/zer0/g1494.png"
             id="g1494"
             transform="translate(185.2838,338.4913)">
            <path
               d="m 0,0 h 23.856 c 1.048,0 2.022,0.102 2.892,0.302 0.833,0.192 1.64,0.542 2.401,1.039 0.699,0.458 1.27,1.184 1.695,2.16 0.448,1.03 0.675,2.396 0.675,4.061 0,2.516 -0.72,4.289 -2.204,5.42 -1.539,1.174 -4.15,1.769 -7.758,1.769 H 0 Z m 23.856,-1.844 h -25.7 v 18.439 h 23.401 c 4.078,0 6.982,-0.702 8.876,-2.147 1.945,-1.483 2.93,-3.8 2.93,-6.886 0,-1.919 -0.28,-3.533 -0.83,-4.797 -0.571,-1.312 -1.371,-2.309 -2.375,-2.967 -0.942,-0.617 -1.95,-1.052 -2.996,-1.292 -1.007,-0.232 -2.118,-0.35 -3.306,-0.35 M 0,-29.088 h 22.884 c 1.647,0 3.14,0.12 4.436,0.357 1.237,0.226 2.382,0.656 3.401,1.279 0.965,0.588 1.741,1.465 2.31,2.607 0.582,1.171 0.877,2.726 0.877,4.624 0,2.734 -0.798,4.782 -2.438,6.262 -1.647,1.481 -3.882,2.233 -6.64,2.233 H 0 Z m 22.884,-1.844 H -1.844 V -9.883 H 24.83 c 3.228,0 5.879,-0.911 7.874,-2.707 2.023,-1.824 3.048,-4.391 3.048,-7.631 0,-2.185 -0.36,-4.016 -1.068,-5.444 l -0.002,-0.001 c -0.725,-1.458 -1.735,-2.589 -3.001,-3.359 -1.212,-0.741 -2.568,-1.252 -4.03,-1.519 -1.406,-0.257 -3.01,-0.388 -4.767,-0.388 m -36.159,-8.598 h 40.406 c 3.864,0 7.189,0.616 9.888,1.83 2.685,1.207 4.82,2.767 6.345,4.637 1.543,1.89 2.663,3.905 3.331,5.992 0.677,2.105 1.019,4.191 1.019,6.198 0,2.549 -0.338,4.763 -1.006,6.58 -0.665,1.81 -1.529,3.328 -2.57,4.511 -1.049,1.192 -2.191,2.147 -3.395,2.839 -1.234,0.709 -2.541,1.278 -3.882,1.69 l -2.202,0.677 2.06,1.029 c 1.094,0.547 2.092,1.109 2.965,1.675 0.83,0.534 1.653,1.288 2.449,2.24 0.777,0.935 1.42,2.166 1.912,3.66 0.497,1.513 0.749,3.361 0.749,5.492 0,2.201 -0.27,4.264 -0.805,6.132 -0.52,1.812 -1.435,3.445 -2.717,4.854 -1.28,1.407 -3.054,2.55 -5.266,3.397 -2.247,0.856 -5.085,1.29 -8.432,1.29 h -40.849 z m 40.406,-1.844 h -42.249 v 68.411 h 42.692 c 3.572,0 6.631,-0.476 9.089,-1.412 2.486,-0.951 4.496,-2.255 5.974,-3.878 1.472,-1.62 2.524,-3.499 3.123,-5.586 0.582,-2.035 0.877,-4.269 0.877,-6.641 0,-2.327 -0.282,-4.369 -0.842,-6.069 -0.562,-1.714 -1.318,-3.149 -2.245,-4.264 -0.917,-1.096 -1.882,-1.973 -2.867,-2.609 -0.409,-0.264 -0.842,-0.528 -1.3,-0.791 0.778,-0.33 1.54,-0.708 2.278,-1.131 1.379,-0.793 2.679,-1.877 3.86,-3.221 1.192,-1.354 2.175,-3.068 2.919,-5.092 0.741,-2.021 1.118,-4.449 1.118,-7.216 0,-2.199 -0.373,-4.474 -1.106,-6.761 -0.74,-2.307 -1.971,-4.526 -3.658,-6.595 -1.709,-2.093 -4.071,-3.826 -7.019,-5.152 -2.936,-1.322 -6.517,-1.993 -10.644,-1.993"
               style="fill:#727272;fill-opacity:1;fill-rule:nonzero;stroke:none"
               id="path1496" />
          </g>
        </g>
      </g>
    </g>
  </g>
</svg>
